<?xml version="1.0" encoding="UTF-8"?>
<svg xmlns="http://www.w3.org/2000/svg" xmlns:xlink="http://www.w3.org/1999/xlink" width="20px" height="20px" viewBox="0 0 20 20" version="1.1">
<g id="surface1">
<path style=" stroke:none;fill-rule:nonzero;fill:rgb(99.607843%,19.215687%,19.215687%);fill-opacity:1;" d="M 9.359375 0.0273438 C 9.429688 0.0273438 9.429688 0.0273438 9.5 0.0273438 C 11.417969 0.0117188 11.417969 0.0117188 12.320312 0.238281 C 12.363281 0.25 12.402344 0.261719 12.445312 0.269531 C 13.269531 0.476562 14.054688 0.800781 14.800781 1.199219 C 14.847656 1.222656 14.890625 1.25 14.941406 1.273438 C 15.683594 1.683594 16.347656 2.214844 16.960938 2.800781 C 16.992188 2.832031 16.992188 2.832031 17.027344 2.863281 C 17.351562 3.175781 17.644531 3.496094 17.910156 3.855469 C 17.957031 3.914062 18.003906 3.976562 18.050781 4.035156 C 18.316406 4.378906 18.542969 4.746094 18.761719 5.121094 C 18.777344 5.148438 18.792969 5.175781 18.808594 5.203125 C 19.617188 6.613281 19.949219 8.191406 20 9.800781 C 20 9.835938 20.003906 9.871094 20.003906 9.910156 C 20.082031 12.503906 19.046875 14.992188 17.285156 16.871094 C 16.953125 17.21875 16.621094 17.542969 16.238281 17.839844 C 16.203125 17.871094 16.164062 17.902344 16.125 17.933594 C 15.550781 18.394531 14.910156 18.765625 14.238281 19.078125 C 14.203125 19.097656 14.167969 19.113281 14.132812 19.132812 C 11.816406 20.246094 9.007812 20.273438 6.601562 19.441406 C 5.429688 19.023438 4.367188 18.386719 3.441406 17.558594 C 3.40625 17.53125 3.371094 17.5 3.335938 17.472656 C 2.910156 17.09375 2.511719 16.691406 2.160156 16.238281 C 2.128906 16.203125 2.097656 16.164062 2.066406 16.125 C 0.84375 14.585938 0.0429688 12.578125 0.03125 10.605469 C 0.03125 10.554688 0.03125 10.503906 0.03125 10.453125 C 0.0273438 10.347656 0.0273438 10.242188 0.0273438 10.136719 C 0.0273438 10.03125 0.0273438 9.925781 0.0273438 9.820312 C -0.00390625 7.191406 1.089844 4.800781 2.90625 2.929688 C 3.1875 2.640625 3.476562 2.363281 3.800781 2.121094 C 3.824219 2.101562 3.851562 2.082031 3.878906 2.0625 C 5.445312 0.882812 7.375 0.046875 9.359375 0.0273438 Z M 9.359375 0.0273438 "/>
<path style=" stroke:none;fill-rule:nonzero;fill:rgb(98.431373%,98.039216%,98.039216%);fill-opacity:1;" d="M 9.359375 0.0273438 C 9.429688 0.0273438 9.429688 0.0273438 9.5 0.0273438 C 11.417969 0.0117188 11.417969 0.0117188 12.320312 0.238281 C 12.363281 0.25 12.402344 0.261719 12.445312 0.269531 C 13.269531 0.476562 14.054688 0.800781 14.800781 1.199219 C 14.847656 1.222656 14.890625 1.25 14.941406 1.273438 C 15.683594 1.683594 16.347656 2.214844 16.960938 2.800781 C 16.992188 2.832031 16.992188 2.832031 17.027344 2.863281 C 17.351562 3.175781 17.644531 3.496094 17.910156 3.855469 C 17.957031 3.914062 18.003906 3.976562 18.050781 4.035156 C 18.316406 4.378906 18.542969 4.746094 18.761719 5.121094 C 18.777344 5.148438 18.792969 5.175781 18.808594 5.203125 C 19.617188 6.613281 19.949219 8.191406 20 9.800781 C 20 9.835938 20.003906 9.871094 20.003906 9.910156 C 20.082031 12.503906 19.046875 14.992188 17.285156 16.871094 C 16.953125 17.21875 16.621094 17.542969 16.238281 17.839844 C 16.203125 17.871094 16.164062 17.902344 16.125 17.933594 C 15.550781 18.394531 14.910156 18.765625 14.238281 19.078125 C 14.203125 19.097656 14.167969 19.113281 14.132812 19.132812 C 11.816406 20.246094 9.007812 20.273438 6.601562 19.441406 C 5.429688 19.023438 4.367188 18.386719 3.441406 17.558594 C 3.40625 17.53125 3.371094 17.5 3.335938 17.472656 C 2.910156 17.09375 2.511719 16.691406 2.160156 16.238281 C 2.128906 16.203125 2.097656 16.164062 2.066406 16.125 C 0.84375 14.585938 0.0429688 12.578125 0.03125 10.605469 C 0.03125 10.554688 0.03125 10.503906 0.03125 10.453125 C 0.0273438 10.347656 0.0273438 10.242188 0.0273438 10.136719 C 0.0273438 10.03125 0.0273438 9.925781 0.0273438 9.820312 C -0.00390625 7.191406 1.089844 4.800781 2.90625 2.929688 C 3.1875 2.640625 3.476562 2.363281 3.800781 2.121094 C 3.824219 2.101562 3.851562 2.082031 3.878906 2.0625 C 5.445312 0.882812 7.375 0.046875 9.359375 0.0273438 Z M 8.640625 1.199219 C 8.597656 1.207031 8.554688 1.210938 8.507812 1.21875 C 8.246094 1.253906 7.996094 1.320312 7.742188 1.398438 C 7.648438 1.425781 7.554688 1.453125 7.460938 1.476562 C 7.109375 1.574219 6.773438 1.695312 6.441406 1.839844 C 6.414062 1.851562 6.386719 1.863281 6.359375 1.875 C 5.472656 2.253906 4.691406 2.800781 3.988281 3.460938 C 3.910156 3.53125 3.835938 3.597656 3.753906 3.664062 C 3.664062 3.738281 3.589844 3.808594 3.515625 3.898438 C 3.425781 4 3.339844 4.101562 3.25 4.203125 C 2.960938 4.53125 2.710938 4.871094 2.480469 5.238281 C 2.464844 5.265625 2.445312 5.292969 2.429688 5.320312 C 1.84375 6.265625 1.429688 7.300781 1.238281 8.398438 C 1.234375 8.433594 1.226562 8.464844 1.222656 8.496094 C 1.03125 9.566406 1.050781 10.699219 1.28125 11.761719 C 1.285156 11.789062 1.292969 11.816406 1.296875 11.847656 C 1.335938 12.035156 1.386719 12.21875 1.441406 12.398438 C 1.449219 12.433594 1.460938 12.46875 1.46875 12.503906 C 1.882812 13.878906 2.566406 15.085938 3.558594 16.121094 C 3.585938 16.144531 3.609375 16.171875 3.636719 16.199219 C 4.179688 16.769531 4.769531 17.226562 5.441406 17.640625 C 5.496094 17.675781 5.496094 17.675781 5.554688 17.710938 C 6.492188 18.285156 7.5625 18.617188 8.640625 18.800781 C 8.671875 18.804688 8.703125 18.808594 8.734375 18.816406 C 9.652344 18.960938 10.605469 18.902344 11.519531 18.761719 C 11.558594 18.753906 11.601562 18.746094 11.640625 18.742188 C 12.507812 18.597656 13.355469 18.304688 14.128906 17.878906 C 14.203125 17.839844 14.277344 17.800781 14.355469 17.761719 C 14.964844 17.4375 15.515625 17.019531 16.011719 16.539062 C 16.121094 16.441406 16.121094 16.441406 16.226562 16.355469 C 16.3125 16.285156 16.378906 16.21875 16.449219 16.136719 C 16.527344 16.046875 16.601562 15.957031 16.679688 15.875 C 16.96875 15.566406 17.203125 15.226562 17.441406 14.878906 C 17.46875 14.839844 17.496094 14.796875 17.523438 14.753906 C 17.929688 14.128906 18.226562 13.4375 18.460938 12.734375 C 18.480469 12.683594 18.496094 12.636719 18.511719 12.585938 C 19.210938 10.40625 18.949219 7.980469 17.9375 5.945312 C 17.675781 5.433594 17.363281 4.964844 17 4.519531 C 16.953125 4.460938 16.953125 4.460938 16.902344 4.398438 C 16.421875 3.804688 15.867188 3.238281 15.238281 2.800781 C 15.214844 2.78125 15.191406 2.765625 15.164062 2.746094 C 14.394531 2.210938 13.566406 1.824219 12.679688 1.519531 C 12.632812 1.503906 12.582031 1.484375 12.53125 1.46875 C 12.183594 1.351562 11.824219 1.285156 11.464844 1.21875 C 11.394531 1.207031 11.324219 1.191406 11.253906 1.179688 C 10.886719 1.105469 10.527344 1.109375 10.15625 1.109375 C 10.125 1.109375 10.09375 1.109375 10.058594 1.109375 C 9.582031 1.113281 9.113281 1.128906 8.640625 1.199219 Z M 8.640625 1.199219 "/>
<path style=" stroke:none;fill-rule:nonzero;fill:rgb(99.607843%,99.215686%,99.215686%);fill-opacity:1;" d="M 7.671875 6.144531 C 8 6.347656 8.261719 6.65625 8.53125 6.925781 C 8.574219 6.96875 8.617188 7.011719 8.660156 7.054688 C 8.769531 7.167969 8.882812 7.277344 8.992188 7.390625 C 9.105469 7.503906 9.21875 7.617188 9.332031 7.730469 C 9.554688 7.953125 9.777344 8.175781 10 8.398438 C 10.234375 8.207031 10.449219 7.992188 10.660156 7.777344 C 10.746094 7.691406 10.832031 7.605469 10.917969 7.515625 C 11.074219 7.355469 11.234375 7.195312 11.390625 7.035156 C 11.5 6.921875 11.613281 6.8125 11.722656 6.699219 C 11.765625 6.65625 11.804688 6.617188 11.847656 6.574219 C 12.113281 6.300781 12.347656 6.082031 12.734375 6.015625 C 13.089844 6.019531 13.34375 6.082031 13.613281 6.320312 C 13.847656 6.570312 13.960938 6.789062 13.984375 7.128906 C 13.957031 7.65625 13.585938 8.003906 13.234375 8.351562 C 13.1875 8.398438 13.136719 8.445312 13.089844 8.492188 C 12.96875 8.613281 12.84375 8.734375 12.722656 8.855469 C 12.59375 8.980469 12.46875 9.105469 12.34375 9.230469 C 12.09375 9.472656 11.847656 9.71875 11.601562 9.960938 C 11.792969 10.195312 12.007812 10.410156 12.222656 10.621094 C 12.308594 10.707031 12.394531 10.792969 12.484375 10.878906 C 12.644531 11.035156 12.804688 11.195312 12.964844 11.351562 C 13.078125 11.460938 13.1875 11.570312 13.300781 11.683594 C 13.34375 11.722656 13.382812 11.765625 13.425781 11.808594 C 13.703125 12.074219 13.921875 12.3125 13.984375 12.703125 C 13.980469 13.074219 13.929688 13.335938 13.675781 13.613281 C 13.371094 13.898438 13.117188 13.9375 12.707031 13.933594 C 12.347656 13.902344 12.09375 13.675781 11.863281 13.414062 C 11.816406 13.359375 11.765625 13.296875 11.71875 13.238281 C 11.652344 13.171875 11.585938 13.105469 11.519531 13.039062 C 11.480469 13 11.441406 12.960938 11.402344 12.921875 C 11.382812 12.902344 11.363281 12.882812 11.339844 12.863281 C 11.28125 12.800781 11.21875 12.738281 11.15625 12.675781 C 11.136719 12.65625 11.117188 12.636719 11.097656 12.617188 C 11.042969 12.5625 10.988281 12.507812 10.933594 12.449219 C 10.839844 12.355469 10.839844 12.355469 10.726562 12.265625 C 10.625 12.1875 10.546875 12.097656 10.460938 12.003906 C 10.332031 11.851562 10.195312 11.726562 10.039062 11.601562 C 9.886719 11.664062 9.792969 11.761719 9.675781 11.878906 C 9.65625 11.898438 9.636719 11.917969 9.617188 11.9375 C 9.574219 11.980469 9.53125 12.023438 9.488281 12.070312 C 9.417969 12.136719 9.351562 12.207031 9.285156 12.277344 C 9.089844 12.472656 8.898438 12.667969 8.703125 12.863281 C 8.585938 12.984375 8.46875 13.105469 8.347656 13.222656 C 8.304688 13.269531 8.257812 13.316406 8.214844 13.359375 C 7.882812 13.699219 7.605469 13.945312 7.109375 13.972656 C 6.792969 13.96875 6.539062 13.816406 6.3125 13.601562 C 6.082031 13.339844 6.019531 13.082031 6.011719 12.738281 C 6.09375 12.320312 6.367188 12.046875 6.664062 11.761719 C 6.734375 11.691406 6.804688 11.621094 6.878906 11.550781 C 7.03125 11.402344 7.183594 11.253906 7.335938 11.105469 C 7.511719 10.933594 7.691406 10.757812 7.867188 10.585938 C 7.9375 10.515625 8.007812 10.445312 8.082031 10.378906 C 8.125 10.335938 8.167969 10.292969 8.210938 10.25 C 8.230469 10.230469 8.25 10.210938 8.269531 10.191406 C 8.371094 10.09375 8.371094 10.09375 8.402344 9.960938 C 8.339844 9.84375 8.257812 9.765625 8.164062 9.671875 C 8.144531 9.652344 8.121094 9.632812 8.101562 9.613281 C 8.058594 9.566406 8.011719 9.523438 7.96875 9.480469 C 7.898438 9.414062 7.828125 9.34375 7.757812 9.273438 C 7.558594 9.078125 7.355469 8.878906 7.15625 8.683594 C 7.03125 8.5625 6.910156 8.445312 6.789062 8.324219 C 6.742188 8.277344 6.695312 8.230469 6.648438 8.1875 C 6.359375 7.90625 6.117188 7.660156 6.058594 7.246094 C 6.0625 6.890625 6.074219 6.65625 6.320312 6.394531 C 6.695312 6.039062 7.191406 5.886719 7.671875 6.144531 Z M 7.671875 6.144531 "/>
<path style=" stroke:none;fill-rule:nonzero;fill:rgb(95.294118%,26.666668%,26.274511%);fill-opacity:1;" d="M 10.878906 7.359375 C 10.894531 7.386719 10.90625 7.414062 10.921875 7.441406 C 10.945312 7.453125 10.972656 7.464844 11 7.480469 C 10.683594 7.796875 10.367188 8.113281 10.039062 8.441406 C 9.726562 8.171875 9.726562 8.171875 9.640625 8.039062 C 9.691406 8.054688 9.746094 8.066406 9.800781 8.078125 C 9.800781 8.105469 9.800781 8.132812 9.800781 8.160156 C 9.851562 8.160156 9.90625 8.160156 9.960938 8.160156 C 9.960938 8.210938 9.960938 8.265625 9.960938 8.320312 C 10 8.320312 10.039062 8.320312 10.078125 8.320312 C 10.078125 8.28125 10.078125 8.242188 10.078125 8.199219 C 10.121094 8.199219 10.160156 8.199219 10.199219 8.199219 C 10.1875 8.132812 10.171875 8.066406 10.160156 8 C 10.1875 8 10.210938 8 10.238281 8 C 10.253906 8.011719 10.265625 8.027344 10.28125 8.039062 C 10.285156 8.015625 10.289062 7.992188 10.292969 7.96875 C 10.339844 7.8125 10.472656 7.730469 10.601562 7.632812 C 10.628906 7.609375 10.65625 7.589844 10.683594 7.566406 C 10.761719 7.519531 10.761719 7.519531 10.878906 7.519531 C 10.878906 7.46875 10.878906 7.414062 10.878906 7.359375 Z M 10.878906 7.359375 "/>
<path style=" stroke:none;fill-rule:nonzero;fill:rgb(89.019608%,31.37255%,30.980393%);fill-opacity:1;" d="M 7.160156 18.398438 C 7.332031 18.398438 7.503906 18.398438 7.679688 18.398438 C 7.679688 18.425781 7.679688 18.453125 7.679688 18.480469 C 7.855469 18.546875 8.019531 18.574219 8.207031 18.589844 C 8.28125 18.601562 8.28125 18.601562 8.320312 18.640625 C 8.578125 18.703125 8.839844 18.730469 9.109375 18.746094 C 9.199219 18.761719 9.199219 18.761719 9.320312 18.839844 C 9.082031 18.84375 8.863281 18.832031 8.628906 18.792969 C 8.601562 18.789062 8.570312 18.78125 8.539062 18.777344 C 8.074219 18.695312 7.605469 18.597656 7.160156 18.441406 C 7.160156 18.425781 7.160156 18.414062 7.160156 18.398438 Z M 7.160156 18.398438 "/>
<path style=" stroke:none;fill-rule:nonzero;fill:rgb(91.764706%,25.882354%,26.274511%);fill-opacity:1;" d="M 12.160156 9.359375 C 12.160156 9.488281 12.128906 9.5625 12.078125 9.679688 C 12.054688 9.679688 12.027344 9.679688 12 9.679688 C 12.011719 9.71875 12.027344 9.757812 12.039062 9.800781 C 11.960938 9.828125 11.882812 9.851562 11.800781 9.878906 C 11.808594 9.917969 11.816406 9.953125 11.824219 9.992188 C 11.839844 10.121094 11.839844 10.121094 11.800781 10.238281 C 11.722656 10.148438 11.640625 10.054688 11.558594 9.960938 C 11.757812 9.761719 11.957031 9.5625 12.160156 9.359375 Z M 12.160156 9.359375 "/>
<path style=" stroke:none;fill-rule:nonzero;fill:rgb(89.803922%,29.803923%,29.803923%);fill-opacity:1;" d="M 18.839844 9.320312 C 18.851562 9.320312 18.867188 9.320312 18.878906 9.320312 C 18.902344 10.589844 18.902344 10.589844 18.824219 11.191406 C 18.820312 11.230469 18.816406 11.269531 18.808594 11.3125 C 18.785156 11.476562 18.761719 11.613281 18.679688 11.761719 C 18.683594 11.730469 18.683594 11.699219 18.6875 11.671875 C 18.703125 11.464844 18.71875 11.261719 18.730469 11.058594 C 18.730469 11.027344 18.734375 10.996094 18.734375 10.964844 C 18.738281 10.902344 18.742188 10.84375 18.746094 10.78125 C 18.753906 10.570312 18.753906 10.570312 18.800781 10.480469 C 18.804688 10.394531 18.808594 10.304688 18.8125 10.21875 C 18.8125 10.167969 18.816406 10.113281 18.816406 10.0625 C 18.820312 10.003906 18.820312 9.949219 18.824219 9.894531 C 18.824219 9.839844 18.824219 9.785156 18.828125 9.726562 C 18.832031 9.59375 18.835938 9.457031 18.839844 9.320312 Z M 18.839844 9.320312 "/>
<path style=" stroke:none;fill-rule:nonzero;fill:rgb(93.725491%,23.921569%,23.137255%);fill-opacity:1;" d="M 13.558594 7.960938 C 13.585938 8 13.613281 8.039062 13.640625 8.078125 C 13.582031 8.21875 13.527344 8.269531 13.398438 8.34375 C 13.257812 8.414062 13.257812 8.414062 13.199219 8.558594 C 13.125 8.632812 13.042969 8.695312 12.960938 8.761719 C 12.921875 8.734375 12.878906 8.707031 12.839844 8.679688 C 13.078125 8.441406 13.316406 8.203125 13.558594 7.960938 Z M 13.558594 7.960938 "/>
<path style=" stroke:none;fill-rule:nonzero;fill:rgb(89.803922%,30.19608%,29.411766%);fill-opacity:1;" d="M 9.398438 1.121094 C 9.597656 1.117188 9.796875 1.113281 9.996094 1.113281 C 10.066406 1.113281 10.132812 1.113281 10.199219 1.109375 C 10.65625 1.105469 11.074219 1.136719 11.519531 1.238281 C 11.519531 1.253906 11.519531 1.265625 11.519531 1.28125 C 11.375 1.273438 11.234375 1.269531 11.089844 1.261719 C 11.050781 1.261719 11.007812 1.257812 10.96875 1.257812 C 10.925781 1.257812 10.886719 1.253906 10.847656 1.253906 C 10.8125 1.25 10.777344 1.25 10.738281 1.25 C 10.640625 1.238281 10.640625 1.238281 10.5625 1.21875 C 10.449219 1.191406 10.34375 1.191406 10.226562 1.1875 C 10.179688 1.1875 10.132812 1.183594 10.082031 1.183594 C 10.03125 1.179688 9.980469 1.179688 9.929688 1.175781 C 9.855469 1.175781 9.855469 1.175781 9.777344 1.171875 C 9.652344 1.167969 9.523438 1.164062 9.398438 1.160156 C 9.398438 1.148438 9.398438 1.132812 9.398438 1.121094 Z M 9.398438 1.121094 "/>
<path style=" stroke:none;fill-rule:nonzero;fill:rgb(95.294118%,23.921569%,24.705882%);fill-opacity:1;" d="M 7.480469 10.558594 C 7.492188 10.585938 7.507812 10.613281 7.519531 10.640625 C 7.640625 10.667969 7.640625 10.667969 7.761719 10.679688 C 7.5625 10.921875 7.34375 11.140625 7.121094 11.359375 C 7.105469 11.320312 7.09375 11.28125 7.078125 11.238281 C 7.105469 11.238281 7.132812 11.238281 7.160156 11.238281 C 7.160156 11.214844 7.160156 11.1875 7.160156 11.160156 C 7.1875 11.160156 7.210938 11.160156 7.238281 11.160156 C 7.253906 11.105469 7.265625 11.054688 7.28125 11 C 7.320312 11 7.359375 11 7.398438 11 C 7.398438 10.925781 7.398438 10.925781 7.394531 10.847656 C 7.390625 10.707031 7.398438 10.683594 7.480469 10.558594 Z M 7.480469 10.558594 "/>
<path style=" stroke:none;fill-rule:nonzero;fill:rgb(89.803922%,31.37255%,30.588236%);fill-opacity:1;" d="M 18.238281 6.71875 C 18.347656 6.882812 18.398438 7.058594 18.460938 7.242188 C 18.472656 7.277344 18.484375 7.316406 18.496094 7.351562 C 18.714844 8.003906 18.714844 8.003906 18.640625 8.238281 C 18.546875 8.148438 18.550781 7.933594 18.527344 7.804688 C 18.488281 7.496094 18.488281 7.496094 18.316406 7.261719 C 18.238281 7.199219 18.238281 7.199219 18.222656 7.082031 C 18.226562 7.039062 18.226562 6.996094 18.230469 6.953125 C 18.230469 6.910156 18.234375 6.867188 18.234375 6.820312 C 18.234375 6.789062 18.238281 6.753906 18.238281 6.71875 Z M 18.238281 6.71875 "/>
<path style=" stroke:none;fill-rule:nonzero;fill:rgb(95.294118%,25.882354%,25.098041%);fill-opacity:1;" d="M 12 6.28125 C 12.054688 6.292969 12.105469 6.304688 12.160156 6.320312 C 12 6.476562 11.84375 6.636719 11.679688 6.800781 C 11.585938 6.707031 11.582031 6.648438 11.558594 6.519531 C 11.691406 6.488281 11.75 6.476562 11.878906 6.519531 C 11.867188 6.46875 11.855469 6.414062 11.839844 6.359375 C 11.894531 6.359375 11.945312 6.359375 12 6.359375 C 12 6.332031 12 6.308594 12 6.28125 Z M 12 6.28125 "/>
<path style=" stroke:none;fill-rule:nonzero;fill:rgb(91.764706%,31.37255%,31.764707%);fill-opacity:1;" d="M 6.160156 6.359375 C 6.226562 6.359375 6.292969 6.359375 6.359375 6.359375 C 6.347656 6.382812 6.332031 6.402344 6.316406 6.425781 C 6.289062 6.46875 6.289062 6.46875 6.261719 6.511719 C 6.246094 6.539062 6.226562 6.570312 6.207031 6.597656 C 6.058594 6.855469 6.082031 7.238281 6.148438 7.519531 C 6.175781 7.601562 6.207031 7.679688 6.238281 7.761719 C 6.199219 7.734375 6.160156 7.707031 6.121094 7.679688 C 6.121094 7.640625 6.121094 7.601562 6.121094 7.558594 C 6.09375 7.558594 6.066406 7.558594 6.039062 7.558594 C 6.039062 7.421875 6.035156 7.285156 6.035156 7.148438 C 6.035156 7.109375 6.035156 7.074219 6.03125 7.03125 C 6.03125 6.996094 6.03125 6.957031 6.03125 6.917969 C 6.03125 6.886719 6.03125 6.851562 6.03125 6.816406 C 6.039062 6.710938 6.070312 6.648438 6.121094 6.558594 C 6.136719 6.492188 6.148438 6.425781 6.160156 6.359375 Z M 6.160156 6.359375 "/>
<path style=" stroke:none;fill-rule:nonzero;fill:rgb(99.607843%,88.627452%,87.843138%);fill-opacity:1;" d="M 6.28125 6.441406 C 6.292969 6.480469 6.304688 6.519531 6.320312 6.558594 C 6.292969 6.585938 6.265625 6.613281 6.238281 6.640625 C 6.144531 6.890625 6.101562 7.1875 6.1875 7.445312 C 6.21875 7.511719 6.25 7.574219 6.28125 7.640625 C 6.265625 7.679688 6.253906 7.71875 6.238281 7.761719 C 6.054688 7.457031 6.039062 7.148438 6.078125 6.800781 C 6.125 6.664062 6.175781 6.542969 6.28125 6.441406 Z M 6.28125 6.441406 "/>
<path style=" stroke:none;fill-rule:nonzero;fill:rgb(89.803922%,25.882354%,26.274511%);fill-opacity:1;" d="M 11.347656 18.675781 C 11.414062 18.675781 11.414062 18.675781 11.484375 18.675781 C 11.527344 18.679688 11.570312 18.679688 11.617188 18.679688 C 11.652344 18.679688 11.683594 18.679688 11.71875 18.679688 C 11.71875 18.691406 11.71875 18.707031 11.71875 18.71875 C 11.304688 18.792969 10.902344 18.863281 10.480469 18.839844 C 10.625 18.742188 10.738281 18.742188 10.90625 18.738281 C 11.066406 18.730469 11.203125 18.679688 11.347656 18.675781 Z M 11.347656 18.675781 "/>
<path style=" stroke:none;fill-rule:nonzero;fill:rgb(93.725491%,26.666668%,28.235295%);fill-opacity:1;" d="M 6.984375 11.355469 C 7.015625 11.355469 7.046875 11.359375 7.078125 11.359375 C 6.914062 11.558594 6.742188 11.742188 6.558594 11.921875 C 6.546875 11.878906 6.535156 11.839844 6.519531 11.800781 C 6.546875 11.800781 6.574219 11.800781 6.601562 11.800781 C 6.601562 11.746094 6.601562 11.695312 6.601562 11.640625 C 6.652344 11.640625 6.707031 11.640625 6.761719 11.640625 C 6.765625 11.59375 6.765625 11.59375 6.773438 11.546875 C 6.808594 11.402344 6.835938 11.363281 6.984375 11.355469 Z M 6.984375 11.355469 "/>
<path style=" stroke:none;fill-rule:nonzero;fill:rgb(99.607843%,89.019608%,86.666667%);fill-opacity:1;" d="M 6.640625 11.800781 C 6.640625 11.976562 6.539062 12.039062 6.421875 12.164062 C 6.347656 12.238281 6.347656 12.238281 6.359375 12.359375 C 6.265625 12.46875 6.265625 12.46875 6.160156 12.558594 C 6.132812 12.558594 6.105469 12.558594 6.078125 12.558594 C 6.152344 12.238281 6.410156 12.023438 6.640625 11.800781 Z M 6.640625 11.800781 "/>
<path style=" stroke:none;fill-rule:nonzero;fill:rgb(94.901961%,23.529412%,23.137255%);fill-opacity:1;" d="M 13.921875 13.121094 C 13.984375 13.238281 14.019531 13.347656 14.039062 13.480469 C 14 13.492188 13.960938 13.507812 13.921875 13.519531 C 13.90625 13.492188 13.894531 13.46875 13.878906 13.441406 C 13.863281 13.472656 13.847656 13.503906 13.832031 13.535156 C 13.75 13.652344 13.695312 13.679688 13.558594 13.71875 C 13.574219 13.699219 13.59375 13.679688 13.609375 13.660156 C 13.742188 13.484375 13.84375 13.328125 13.921875 13.121094 Z M 13.921875 13.121094 "/>
<path style=" stroke:none;fill-rule:nonzero;fill:rgb(90.196079%,26.274511%,26.274511%);fill-opacity:1;" d="M 1.359375 11.921875 C 1.449219 12.054688 1.480469 12.167969 1.523438 12.324219 C 1.554688 12.496094 1.554688 12.496094 1.640625 12.640625 C 1.640625 12.734375 1.640625 12.828125 1.640625 12.921875 C 1.546875 12.78125 1.503906 12.644531 1.453125 12.488281 C 1.445312 12.460938 1.4375 12.429688 1.425781 12.402344 C 1.375 12.238281 1.347656 12.097656 1.359375 11.921875 Z M 1.359375 11.921875 "/>
<path style=" stroke:none;fill-rule:nonzero;fill:rgb(90.588236%,26.274511%,27.058825%);fill-opacity:1;" d="M 12.601562 8.921875 C 12.679688 9.039062 12.679688 9.039062 12.679688 9.121094 C 12.625 9.171875 12.574219 9.226562 12.519531 9.28125 C 12.480469 9.28125 12.441406 9.28125 12.398438 9.28125 C 12.332031 9.335938 12.332031 9.335938 12.28125 9.398438 C 12.253906 9.375 12.226562 9.347656 12.199219 9.320312 C 12.332031 9.1875 12.464844 9.054688 12.601562 8.921875 Z M 12.601562 8.921875 "/>
<path style=" stroke:none;fill-rule:nonzero;fill:rgb(92.941177%,26.666668%,28.235295%);fill-opacity:1;" d="M 5.519531 17.640625 C 5.613281 17.640625 5.703125 17.640625 5.800781 17.640625 C 5.800781 17.667969 5.800781 17.691406 5.800781 17.71875 C 5.855469 17.722656 5.855469 17.722656 5.914062 17.726562 C 6.039062 17.761719 6.039062 17.761719 6.113281 17.882812 C 6.128906 17.921875 6.144531 17.960938 6.160156 18 C 5.921875 17.9375 5.722656 17.816406 5.519531 17.679688 C 5.519531 17.667969 5.519531 17.652344 5.519531 17.640625 Z M 5.519531 17.640625 "/>
<path style=" stroke:none;fill-rule:nonzero;fill:rgb(95.686275%,30.588236%,31.764707%);fill-opacity:1;" d="M 12.28125 13.761719 C 12.335938 13.789062 12.335938 13.789062 12.390625 13.816406 C 12.597656 13.90625 12.816406 13.910156 13.039062 13.921875 C 13.039062 13.933594 13.039062 13.945312 13.039062 13.960938 C 12.816406 13.960938 12.589844 13.960938 12.359375 13.960938 C 12.347656 13.988281 12.332031 14.011719 12.320312 14.039062 C 12.277344 13.96875 12.277344 13.96875 12.238281 13.878906 C 12.253906 13.839844 12.265625 13.800781 12.28125 13.761719 Z M 12.160156 13.921875 C 12.1875 13.921875 12.210938 13.921875 12.238281 13.921875 C 12.226562 13.960938 12.214844 14 12.199219 14.039062 C 12.1875 14 12.171875 13.960938 12.160156 13.921875 Z M 12.160156 13.921875 "/>
<path style=" stroke:none;fill-rule:nonzero;fill:rgb(93.333334%,25.490198%,27.058825%);fill-opacity:1;" d="M 9.640625 8.039062 C 9.691406 8.054688 9.746094 8.066406 9.800781 8.078125 C 9.800781 8.105469 9.800781 8.132812 9.800781 8.160156 C 9.851562 8.160156 9.90625 8.160156 9.960938 8.160156 C 9.960938 8.210938 9.960938 8.265625 9.960938 8.320312 C 10 8.320312 10.039062 8.320312 10.078125 8.320312 C 10.078125 8.28125 10.078125 8.242188 10.078125 8.199219 C 10.121094 8.199219 10.160156 8.199219 10.199219 8.199219 C 10.144531 8.328125 10.121094 8.359375 10 8.441406 C 9.941406 8.382812 9.878906 8.320312 9.820312 8.261719 C 9.785156 8.230469 9.753906 8.195312 9.71875 8.164062 C 9.640625 8.078125 9.640625 8.078125 9.640625 8.039062 Z M 9.640625 8.039062 "/>
<path style=" stroke:none;fill-rule:nonzero;fill:rgb(92.156863%,29.411766%,28.627452%);fill-opacity:1;" d="M 7.121094 1.601562 C 7.105469 1.652344 7.09375 1.707031 7.078125 1.761719 C 7.003906 1.78125 6.925781 1.800781 6.851562 1.824219 C 6.808594 1.835938 6.765625 1.84375 6.71875 1.859375 C 6.605469 1.878906 6.546875 1.878906 6.441406 1.839844 C 6.539062 1.800781 6.636719 1.761719 6.734375 1.71875 C 6.761719 1.707031 6.789062 1.695312 6.820312 1.683594 C 7.03125 1.601562 7.03125 1.601562 7.121094 1.601562 Z M 7.121094 1.601562 "/>
<path style=" stroke:none;fill-rule:nonzero;fill:rgb(91.764706%,25.882354%,26.274511%);fill-opacity:1;" d="M 9.160156 7.558594 C 9.199219 7.558594 9.238281 7.558594 9.28125 7.558594 C 9.304688 7.597656 9.332031 7.640625 9.359375 7.679688 C 9.480469 7.726562 9.480469 7.726562 9.601562 7.761719 C 9.585938 7.800781 9.574219 7.839844 9.558594 7.878906 C 9.585938 7.878906 9.613281 7.878906 9.640625 7.878906 C 9.625 7.933594 9.613281 7.984375 9.601562 8.039062 C 9.527344 7.96875 9.453125 7.894531 9.378906 7.824219 C 9.359375 7.800781 9.339844 7.78125 9.316406 7.761719 C 9.261719 7.707031 9.210938 7.652344 9.160156 7.601562 C 9.160156 7.585938 9.160156 7.574219 9.160156 7.558594 Z M 9.160156 7.558594 "/>
<path style=" stroke:none;fill-rule:nonzero;fill:rgb(99.607843%,91.37255%,90.196079%);fill-opacity:1;" d="M 15.960938 16.558594 C 15.960938 16.679688 15.960938 16.679688 15.863281 16.789062 C 15.824219 16.828125 15.78125 16.867188 15.738281 16.90625 C 15.71875 16.929688 15.699219 16.949219 15.675781 16.96875 C 15.625 17.019531 15.574219 17.070312 15.519531 17.121094 C 15.480469 17.09375 15.441406 17.066406 15.398438 17.039062 C 15.585938 16.882812 15.769531 16.722656 15.960938 16.558594 Z M 15.960938 16.558594 "/>
<path style=" stroke:none;fill-rule:nonzero;fill:rgb(90.588236%,32.156864%,33.725491%);fill-opacity:1;" d="M 7.960938 9.480469 C 8.332031 9.792969 8.332031 9.792969 8.441406 9.921875 C 8.433594 10.011719 8.433594 10.011719 8.398438 10.078125 C 8.386719 10.027344 8.375 9.972656 8.359375 9.921875 C 8.308594 9.90625 8.253906 9.894531 8.199219 9.878906 C 8.199219 9.855469 8.199219 9.828125 8.199219 9.800781 C 8.171875 9.800781 8.148438 9.800781 8.121094 9.800781 C 7.960938 9.582031 7.960938 9.582031 7.960938 9.480469 Z M 7.960938 9.480469 "/>
<path style=" stroke:none;fill-rule:nonzero;fill:rgb(93.725491%,29.019609%,30.588236%);fill-opacity:1;" d="M 11.519531 6.71875 C 11.53125 6.746094 11.546875 6.773438 11.558594 6.800781 C 11.585938 6.8125 11.613281 6.828125 11.640625 6.839844 C 11.519531 6.957031 11.402344 7.078125 11.28125 7.199219 C 11.265625 7.148438 11.253906 7.09375 11.238281 7.039062 C 11.28125 7.039062 11.320312 7.039062 11.359375 7.039062 C 11.347656 6.988281 11.332031 6.933594 11.320312 6.878906 C 11.34375 6.859375 11.371094 6.84375 11.398438 6.824219 C 11.476562 6.765625 11.476562 6.765625 11.519531 6.71875 Z M 11.519531 6.71875 "/>
<path style=" stroke:none;fill-rule:nonzero;fill:rgb(91.764706%,24.705882%,26.274511%);fill-opacity:1;" d="M 7.71875 6.160156 C 7.800781 6.160156 7.878906 6.160156 7.960938 6.160156 C 7.96875 6.191406 7.976562 6.222656 7.988281 6.253906 C 8.050781 6.382812 8.113281 6.417969 8.238281 6.480469 C 8.226562 6.53125 8.214844 6.585938 8.199219 6.640625 C 8.039062 6.480469 7.878906 6.320312 7.71875 6.160156 Z M 7.71875 6.160156 "/>
<path style=" stroke:none;fill-rule:nonzero;fill:rgb(91.37255%,26.666668%,26.274511%);fill-opacity:1;" d="M 9.398438 12.121094 C 9.398438 12.300781 9.316406 12.425781 9.199219 12.558594 C 9.066406 12.601562 9.066406 12.601562 8.960938 12.601562 C 9.101562 12.433594 9.242188 12.273438 9.398438 12.121094 Z M 9.398438 12.121094 "/>
<path style=" stroke:none;fill-rule:nonzero;fill:rgb(92.54902%,28.627452%,28.627452%);fill-opacity:1;" d="M 3.28125 4.160156 C 3.320312 4.320312 3.320312 4.320312 3.273438 4.421875 C 3.191406 4.53125 3.121094 4.582031 3 4.640625 C 2.960938 4.640625 2.921875 4.640625 2.878906 4.640625 C 3.011719 4.480469 3.144531 4.324219 3.28125 4.160156 Z M 3.28125 4.160156 "/>
<path style=" stroke:none;fill-rule:nonzero;fill:rgb(90.588236%,26.666668%,28.627452%);fill-opacity:1;" d="M 8.121094 13.398438 C 8.132812 13.425781 8.144531 13.453125 8.160156 13.480469 C 8.042969 13.6875 7.941406 13.78125 7.71875 13.878906 C 7.621094 13.871094 7.621094 13.871094 7.558594 13.839844 C 7.621094 13.808594 7.621094 13.808594 7.683594 13.777344 C 7.855469 13.679688 7.984375 13.546875 8.121094 13.398438 Z M 8.121094 13.398438 "/>
<path style=" stroke:none;fill-rule:nonzero;fill:rgb(94.117647%,28.235295%,28.627452%);fill-opacity:1;" d="M 7.960938 10.28125 C 8.011719 10.304688 8.066406 10.332031 8.121094 10.359375 C 8.015625 10.464844 7.910156 10.570312 7.800781 10.679688 C 7.773438 10.628906 7.746094 10.574219 7.71875 10.519531 C 7.757812 10.519531 7.800781 10.519531 7.839844 10.519531 C 7.851562 10.488281 7.863281 10.457031 7.878906 10.421875 C 7.921875 10.320312 7.921875 10.320312 7.960938 10.28125 Z M 7.960938 10.28125 "/>
<path style=" stroke:none;fill-rule:nonzero;fill:rgb(99.215686%,94.509804%,91.764706%);fill-opacity:1;" d="M 8.121094 9.601562 C 8.277344 9.652344 8.378906 9.707031 8.480469 9.839844 C 8.511719 9.96875 8.511719 9.96875 8.519531 10.078125 C 8.46875 10.09375 8.414062 10.105469 8.359375 10.121094 C 8.371094 10.09375 8.382812 10.066406 8.398438 10.039062 C 8.414062 9.917969 8.414062 9.917969 8.339844 9.847656 C 8.289062 9.796875 8.234375 9.746094 8.183594 9.699219 C 8.160156 9.679688 8.140625 9.660156 8.121094 9.640625 C 8.121094 9.625 8.121094 9.613281 8.121094 9.601562 Z M 8.121094 9.601562 "/>
<path style=" stroke:none;fill-rule:nonzero;fill:rgb(90.196079%,26.274511%,26.666668%);fill-opacity:1;" d="M 12.320312 18.398438 C 12.476562 18.398438 12.636719 18.398438 12.800781 18.398438 C 12.6875 18.476562 12.605469 18.507812 12.480469 18.546875 C 12.429688 18.5625 12.429688 18.5625 12.375 18.578125 C 12.28125 18.601562 12.28125 18.601562 12.160156 18.601562 C 12.160156 18.574219 12.160156 18.546875 12.160156 18.519531 C 12.210938 18.507812 12.265625 18.492188 12.320312 18.480469 C 12.320312 18.453125 12.320312 18.425781 12.320312 18.398438 Z M 12.320312 18.398438 "/>
<path style=" stroke:none;fill-rule:nonzero;fill:rgb(99.607843%,94.509804%,92.941177%);fill-opacity:1;" d="M 7.121094 11.320312 C 7.132812 11.359375 7.144531 11.398438 7.160156 11.441406 C 6.875 11.746094 6.875 11.746094 6.679688 11.800781 C 6.820312 11.632812 6.964844 11.472656 7.121094 11.320312 Z M 7.121094 11.320312 "/>
<path style=" stroke:none;fill-rule:nonzero;fill:rgb(95.686275%,27.450982%,26.666668%);fill-opacity:1;" d="M 11 7.078125 C 11.027344 7.105469 11.054688 7.132812 11.078125 7.160156 C 11.132812 7.1875 11.1875 7.214844 11.238281 7.238281 C 11.121094 7.339844 11.121094 7.339844 11 7.441406 C 11 7.402344 11 7.359375 11 7.320312 C 10.972656 7.308594 10.945312 7.292969 10.921875 7.28125 C 10.953125 7.125 10.953125 7.125 11 7.078125 Z M 11 7.078125 "/>
<path style=" stroke:none;fill-rule:nonzero;fill:rgb(93.725491%,26.666668%,26.666668%);fill-opacity:1;" d="M 18.238281 6.71875 C 18.367188 6.910156 18.410156 7.050781 18.398438 7.28125 C 18.347656 7.253906 18.292969 7.226562 18.238281 7.199219 C 18.238281 7.042969 18.238281 6.882812 18.238281 6.71875 Z M 18.238281 6.71875 "/>
<path style=" stroke:none;fill-rule:nonzero;fill:rgb(88.627452%,28.235295%,27.450982%);fill-opacity:1;" d="M 6.921875 6 C 7.15625 6 7.394531 6 7.640625 6 C 7.667969 6.054688 7.691406 6.105469 7.71875 6.160156 C 7.675781 6.148438 7.632812 6.136719 7.589844 6.121094 C 7.371094 6.066406 7.144531 6.054688 6.921875 6.039062 C 6.921875 6.027344 6.921875 6.011719 6.921875 6 Z M 6.921875 6 "/>
<path style=" stroke:none;fill-rule:nonzero;fill:rgb(91.37255%,28.235295%,29.803923%);fill-opacity:1;" d="M 2.398438 14.558594 C 2.441406 14.574219 2.480469 14.585938 2.519531 14.601562 C 2.53125 14.664062 2.546875 14.730469 2.558594 14.800781 C 2.597656 14.785156 2.640625 14.773438 2.679688 14.761719 C 2.765625 15.03125 2.765625 15.03125 2.71875 15.121094 C 2.667969 15.042969 2.613281 14.964844 2.558594 14.886719 C 2.53125 14.839844 2.5 14.796875 2.46875 14.753906 C 2.398438 14.640625 2.398438 14.640625 2.398438 14.558594 Z M 2.398438 14.558594 "/>
<path style=" stroke:none;fill-rule:nonzero;fill:rgb(92.54902%,25.098041%,25.882354%);fill-opacity:1;" d="M 6.238281 11.960938 C 6.304688 11.972656 6.371094 11.988281 6.441406 12 C 6.402344 12.050781 6.363281 12.101562 6.324219 12.15625 C 6.304688 12.183594 6.28125 12.210938 6.261719 12.242188 C 6.199219 12.320312 6.199219 12.320312 6.121094 12.398438 C 6.148438 12.09375 6.148438 12.09375 6.238281 11.960938 Z M 6.238281 11.960938 "/>
<path style=" stroke:none;fill-rule:nonzero;fill:rgb(91.764706%,30.588236%,30.980393%);fill-opacity:1;" d="M 7.398438 10.921875 C 7.441406 10.933594 7.480469 10.945312 7.519531 10.960938 C 7.386719 11.09375 7.257812 11.222656 7.121094 11.359375 C 7.105469 11.320312 7.09375 11.28125 7.078125 11.238281 C 7.105469 11.238281 7.132812 11.238281 7.160156 11.238281 C 7.160156 11.214844 7.160156 11.1875 7.160156 11.160156 C 7.1875 11.160156 7.210938 11.160156 7.238281 11.160156 C 7.253906 11.105469 7.265625 11.054688 7.28125 11 C 7.320312 11 7.359375 11 7.398438 11 C 7.398438 10.972656 7.398438 10.945312 7.398438 10.921875 Z M 7.398438 10.921875 "/>
<path style=" stroke:none;fill-rule:nonzero;fill:rgb(90.196079%,27.058825%,27.450982%);fill-opacity:1;" d="M 8.761719 12.761719 C 8.761719 12.914062 8.714844 12.949219 8.621094 13.066406 C 8.59375 13.101562 8.566406 13.132812 8.542969 13.164062 C 8.519531 13.191406 8.5 13.214844 8.480469 13.238281 C 8.441406 13.214844 8.402344 13.1875 8.359375 13.160156 C 8.492188 13.027344 8.625 12.894531 8.761719 12.761719 Z M 8.761719 12.761719 "/>
<path style=" stroke:none;fill-rule:nonzero;fill:rgb(90.196079%,26.274511%,27.450982%);fill-opacity:1;" d="M 12.960938 11.121094 C 12.972656 11.1875 12.988281 11.253906 13 11.320312 C 13.039062 11.332031 13.078125 11.347656 13.121094 11.359375 C 13.132812 11.425781 13.144531 11.492188 13.160156 11.558594 C 12.859375 11.3125 12.859375 11.3125 12.761719 11.160156 C 12.914062 11.121094 12.914062 11.121094 12.960938 11.121094 Z M 12.960938 11.121094 "/>
<path style=" stroke:none;fill-rule:nonzero;fill:rgb(90.196079%,26.274511%,27.450982%);fill-opacity:1;" d="M 12.320312 10.480469 C 12.332031 10.546875 12.347656 10.613281 12.359375 10.679688 C 12.398438 10.691406 12.4375 10.707031 12.480469 10.71875 C 12.492188 10.785156 12.507812 10.851562 12.519531 10.921875 C 12.21875 10.675781 12.21875 10.675781 12.121094 10.519531 C 12.273438 10.480469 12.273438 10.480469 12.320312 10.480469 Z M 12.320312 10.480469 "/>
<path style=" stroke:none;fill-rule:nonzero;fill:rgb(90.980393%,30.980393%,32.156864%);fill-opacity:1;" d="M 6.558594 8.078125 C 6.726562 8.214844 6.871094 8.347656 7 8.519531 C 6.960938 8.539062 6.960938 8.539062 6.921875 8.558594 C 6.921875 8.535156 6.921875 8.507812 6.921875 8.480469 C 6.867188 8.453125 6.8125 8.425781 6.761719 8.398438 C 6.761719 8.375 6.761719 8.347656 6.761719 8.320312 C 6.734375 8.308594 6.707031 8.300781 6.683594 8.289062 C 6.601562 8.238281 6.601562 8.238281 6.574219 8.15625 C 6.570312 8.132812 6.566406 8.105469 6.558594 8.078125 Z M 6.558594 8.078125 "/>
<path style=" stroke:none;fill-rule:nonzero;fill:rgb(99.607843%,94.509804%,92.54902%);fill-opacity:1;" d="M 10.320312 8.121094 C 10.320312 8.238281 10.320312 8.238281 10.257812 8.3125 C 10.21875 8.351562 10.21875 8.351562 10.179688 8.386719 C 10.152344 8.414062 10.128906 8.4375 10.101562 8.464844 C 10.082031 8.480469 10.0625 8.5 10.039062 8.519531 C 10 8.507812 9.960938 8.492188 9.921875 8.480469 C 9.871094 8.378906 9.871094 8.378906 9.839844 8.28125 C 9.9375 8.339844 9.9375 8.339844 10.039062 8.398438 C 10.132812 8.308594 10.226562 8.214844 10.320312 8.121094 Z M 10.320312 8.121094 "/>
<path style=" stroke:none;fill-rule:nonzero;fill:rgb(99.607843%,96.078432%,94.901961%);fill-opacity:1;" d="M 11.359375 7.078125 C 11.386719 7.132812 11.414062 7.1875 11.441406 7.238281 C 11.417969 7.25 11.394531 7.261719 11.371094 7.269531 C 11.265625 7.328125 11.175781 7.402344 11.078125 7.480469 C 11.054688 7.46875 11.027344 7.453125 11 7.441406 C 11.117188 7.320312 11.238281 7.203125 11.359375 7.078125 Z M 11.359375 7.078125 "/>
<path style=" stroke:none;fill-rule:nonzero;fill:rgb(90.196079%,27.058825%,27.450982%);fill-opacity:1;" d="M 13.785156 17.953125 C 13.816406 17.957031 13.847656 17.957031 13.878906 17.960938 C 13.707031 18.109375 13.46875 18.238281 13.238281 18.238281 C 13.238281 18.214844 13.238281 18.1875 13.238281 18.160156 C 13.265625 18.152344 13.289062 18.144531 13.316406 18.136719 C 13.347656 18.125 13.382812 18.117188 13.414062 18.105469 C 13.449219 18.09375 13.480469 18.085938 13.511719 18.074219 C 13.632812 18.027344 13.652344 17.960938 13.785156 17.953125 Z M 13.785156 17.953125 "/>
<path style=" stroke:none;fill-rule:nonzero;fill:rgb(91.764706%,31.764707%,32.156864%);fill-opacity:1;" d="M 11.761719 13.28125 C 12.058594 13.527344 12.058594 13.527344 12.160156 13.679688 C 12.050781 13.675781 12.050781 13.675781 11.921875 13.640625 C 11.832031 13.535156 11.761719 13.417969 11.761719 13.28125 Z M 11.761719 13.28125 "/>
<path style=" stroke:none;fill-rule:nonzero;fill:rgb(94.117647%,22.745098%,22.352941%);fill-opacity:1;" d="M 12.160156 9.359375 C 12.160156 9.488281 12.128906 9.5625 12.078125 9.679688 C 12.054688 9.679688 12.027344 9.679688 12 9.679688 C 12.011719 9.71875 12.027344 9.757812 12.039062 9.800781 C 12 9.8125 11.960938 9.828125 11.921875 9.839844 C 11.9375 9.78125 11.953125 9.726562 11.972656 9.667969 C 11.980469 9.636719 11.992188 9.601562 12.003906 9.570312 C 12.042969 9.476562 12.082031 9.425781 12.160156 9.359375 Z M 12.160156 9.359375 "/>
<path style=" stroke:none;fill-rule:nonzero;fill:rgb(92.156863%,29.803923%,30.980393%);fill-opacity:1;" d="M 7.398438 8.921875 C 7.671875 9.144531 7.671875 9.144531 7.761719 9.28125 C 7.71875 9.300781 7.71875 9.300781 7.679688 9.320312 C 7.679688 9.292969 7.679688 9.265625 7.679688 9.238281 C 7.628906 9.253906 7.574219 9.265625 7.519531 9.28125 C 7.480469 9.160156 7.441406 9.042969 7.398438 8.921875 Z M 7.398438 8.921875 "/>
<path style=" stroke:none;fill-rule:nonzero;fill:rgb(99.607843%,93.725491%,93.333334%);fill-opacity:1;" d="M 7.199219 8.679688 C 7.386719 8.730469 7.46875 8.828125 7.585938 8.972656 C 7.640625 9.042969 7.640625 9.042969 7.71875 9.121094 C 7.601562 9.121094 7.601562 9.121094 7.5 9.035156 C 7.464844 8.996094 7.429688 8.960938 7.390625 8.921875 C 7.355469 8.886719 7.320312 8.847656 7.285156 8.8125 C 7.199219 8.71875 7.199219 8.71875 7.199219 8.679688 Z M 7.199219 8.679688 "/>
<path style=" stroke:none;fill-rule:nonzero;fill:rgb(90.196079%,29.411766%,30.588236%);fill-opacity:1;" d="M 9.960938 11.558594 C 10.113281 11.621094 10.207031 11.722656 10.320312 11.839844 C 10.28125 11.839844 10.242188 11.839844 10.199219 11.839844 C 10.183594 11.820312 10.164062 11.800781 10.144531 11.78125 C 10.0625 11.703125 9.992188 11.695312 9.878906 11.679688 C 9.90625 11.640625 9.933594 11.601562 9.960938 11.558594 Z M 9.960938 11.558594 "/>
<path style=" stroke:none;fill-rule:nonzero;fill:rgb(99.607843%,90.588236%,87.450981%);fill-opacity:1;" d="M 4.921875 17.28125 C 5.050781 17.359375 5.183594 17.4375 5.320312 17.519531 C 5.308594 17.546875 5.292969 17.574219 5.28125 17.601562 C 5.050781 17.523438 5.050781 17.523438 4.960938 17.480469 C 4.945312 17.414062 4.933594 17.347656 4.921875 17.28125 Z M 4.921875 17.28125 "/>
<path style=" stroke:none;fill-rule:nonzero;fill:rgb(88.627452%,27.450982%,27.843139%);fill-opacity:1;" d="M 7.558594 13.921875 C 7.335938 14.011719 7.117188 14.023438 6.878906 14.039062 C 6.855469 14 6.828125 13.960938 6.800781 13.921875 C 6.832031 13.921875 6.863281 13.921875 6.898438 13.921875 C 6.941406 13.921875 6.984375 13.921875 7.027344 13.921875 C 7.089844 13.921875 7.089844 13.921875 7.15625 13.925781 C 7.277344 13.921875 7.277344 13.921875 7.390625 13.898438 C 7.480469 13.878906 7.480469 13.878906 7.558594 13.921875 Z M 7.558594 13.921875 "/>
<path style=" stroke:none;fill-rule:nonzero;fill:rgb(90.980393%,34.509805%,34.509805%);fill-opacity:1;" d="M 10.480469 12 C 10.644531 12.136719 10.792969 12.265625 10.921875 12.441406 C 10.800781 12.441406 10.800781 12.441406 10.695312 12.347656 C 10.601562 12.238281 10.601562 12.238281 10.558594 12.121094 C 10.535156 12.121094 10.507812 12.121094 10.480469 12.121094 C 10.480469 12.082031 10.480469 12.039062 10.480469 12 Z M 10.480469 12 "/>
<path style=" stroke:none;fill-rule:nonzero;fill:rgb(91.37255%,34.117648%,34.117648%);fill-opacity:1;" d="M 1.960938 6.160156 C 1.996094 6.261719 2.003906 6.308594 1.96875 6.414062 C 1.953125 6.445312 1.9375 6.476562 1.921875 6.511719 C 1.898438 6.558594 1.898438 6.558594 1.875 6.605469 C 1.863281 6.632812 1.851562 6.65625 1.839844 6.679688 C 1.8125 6.679688 1.789062 6.679688 1.761719 6.679688 C 1.808594 6.492188 1.867188 6.332031 1.960938 6.160156 Z M 1.960938 6.160156 "/>
<path style=" stroke:none;fill-rule:nonzero;fill:rgb(92.941177%,29.411766%,29.803923%);fill-opacity:1;" d="M 12 6.28125 C 12.054688 6.292969 12.105469 6.304688 12.160156 6.320312 C 12.019531 6.4375 12.019531 6.4375 11.878906 6.558594 C 11.867188 6.492188 11.855469 6.429688 11.839844 6.359375 C 11.894531 6.359375 11.945312 6.359375 12 6.359375 C 12 6.332031 12 6.308594 12 6.28125 Z M 12 6.28125 "/>
<path style=" stroke:none;fill-rule:nonzero;fill:rgb(90.588236%,26.274511%,27.843139%);fill-opacity:1;" d="M 13.121094 1.71875 C 13.339844 1.742188 13.523438 1.824219 13.71875 1.921875 C 13.589844 1.960938 13.570312 1.964844 13.441406 1.902344 C 13.402344 1.882812 13.359375 1.859375 13.320312 1.839844 C 13.265625 1.839844 13.214844 1.839844 13.160156 1.839844 C 13.148438 1.800781 13.132812 1.761719 13.121094 1.71875 Z M 13.121094 1.71875 "/>
<path style=" stroke:none;fill-rule:nonzero;fill:rgb(90.980393%,26.274511%,26.274511%);fill-opacity:1;" d="M 13.359375 8.160156 C 13.375 8.210938 13.386719 8.265625 13.398438 8.320312 C 13.292969 8.40625 13.214844 8.449219 13.078125 8.480469 C 13.121094 8.433594 13.160156 8.386719 13.199219 8.34375 C 13.21875 8.316406 13.242188 8.292969 13.261719 8.265625 C 13.292969 8.230469 13.328125 8.195312 13.359375 8.160156 Z M 13.359375 8.160156 "/>
<path style=" stroke:none;fill-rule:nonzero;fill:rgb(99.607843%,89.019608%,87.450981%);fill-opacity:1;" d="M 17.359375 14.960938 C 17.375 15 17.386719 15.039062 17.398438 15.078125 C 17.324219 15.207031 17.324219 15.207031 17.238281 15.320312 C 17.199219 15.308594 17.160156 15.292969 17.121094 15.28125 C 17.199219 15.175781 17.277344 15.070312 17.359375 14.960938 Z M 17.359375 14.960938 "/>
<path style=" stroke:none;fill-rule:nonzero;fill:rgb(100%,93.725491%,92.156863%);fill-opacity:1;" d="M 6.640625 11.800781 C 6.640625 11.949219 6.601562 11.976562 6.5 12.085938 C 6.460938 12.128906 6.460938 12.128906 6.421875 12.175781 C 6.402344 12.195312 6.378906 12.21875 6.359375 12.238281 C 6.347656 12.199219 6.332031 12.160156 6.320312 12.121094 C 6.425781 12.015625 6.53125 11.910156 6.640625 11.800781 Z M 6.640625 11.800781 "/>
<path style=" stroke:none;fill-rule:nonzero;fill:rgb(99.607843%,88.235295%,87.843138%);fill-opacity:1;" d="M 13.800781 7.480469 C 13.828125 7.480469 13.851562 7.480469 13.878906 7.480469 C 13.828125 7.679688 13.753906 7.78125 13.601562 7.921875 C 13.621094 7.804688 13.632812 7.765625 13.71875 7.679688 C 13.75 7.613281 13.773438 7.546875 13.800781 7.480469 Z M 13.800781 7.480469 "/>
<path style=" stroke:none;fill-rule:nonzero;fill:rgb(92.941177%,26.274511%,27.843139%);fill-opacity:1;" d="M 14.839844 2.558594 C 15.113281 2.710938 15.113281 2.710938 15.160156 2.800781 C 15.054688 2.785156 14.949219 2.773438 14.839844 2.761719 C 14.839844 2.695312 14.839844 2.628906 14.839844 2.558594 Z M 14.839844 2.558594 "/>
<path style=" stroke:none;fill-rule:nonzero;fill:rgb(91.37255%,28.235295%,29.019609%);fill-opacity:1;" d="M 5.640625 2.238281 C 5.667969 2.253906 5.691406 2.265625 5.71875 2.28125 C 5.546875 2.476562 5.546875 2.476562 5.40625 2.492188 C 5.363281 2.484375 5.363281 2.484375 5.320312 2.480469 C 5.417969 2.375 5.503906 2.289062 5.640625 2.238281 Z M 5.640625 2.238281 "/>
<path style=" stroke:none;fill-rule:nonzero;fill:rgb(99.607843%,87.450981%,86.274511%);fill-opacity:1;" d="M 17.679688 14.441406 C 17.691406 14.480469 17.707031 14.519531 17.71875 14.558594 C 17.648438 14.679688 17.648438 14.679688 17.558594 14.800781 C 17.519531 14.859375 17.519531 14.859375 17.480469 14.921875 C 17.453125 14.90625 17.425781 14.894531 17.398438 14.878906 C 17.492188 14.734375 17.585938 14.589844 17.679688 14.441406 Z M 17.679688 14.441406 "/>
<path style=" stroke:none;fill-rule:nonzero;fill:rgb(99.607843%,90.980393%,89.019608%);fill-opacity:1;" d="M 6.238281 13.480469 C 6.292969 13.492188 6.34375 13.507812 6.398438 13.519531 C 6.398438 13.546875 6.398438 13.574219 6.398438 13.601562 C 6.453125 13.625 6.503906 13.652344 6.558594 13.679688 C 6.558594 13.71875 6.558594 13.757812 6.558594 13.800781 C 6.507812 13.753906 6.453125 13.707031 6.398438 13.664062 C 6.371094 13.636719 6.339844 13.613281 6.308594 13.585938 C 6.285156 13.5625 6.265625 13.542969 6.238281 13.519531 C 6.238281 13.507812 6.238281 13.492188 6.238281 13.480469 Z M 6.238281 13.480469 "/>
<path style=" stroke:none;fill-rule:nonzero;fill:rgb(92.156863%,32.549021%,34.509805%);fill-opacity:1;" d="M 10.878906 7.359375 C 10.894531 7.386719 10.90625 7.414062 10.921875 7.441406 C 10.945312 7.453125 10.972656 7.464844 11 7.480469 C 10.90625 7.558594 10.816406 7.636719 10.71875 7.71875 C 10.734375 7.652344 10.746094 7.589844 10.761719 7.519531 C 10.800781 7.519531 10.839844 7.519531 10.878906 7.519531 C 10.878906 7.46875 10.878906 7.414062 10.878906 7.359375 Z M 10.878906 7.359375 "/>
<path style=" stroke:none;fill-rule:nonzero;fill:rgb(89.803922%,27.058825%,28.235295%);fill-opacity:1;" d="M 8.320312 6.71875 C 8.398438 6.734375 8.398438 6.734375 8.480469 6.761719 C 8.492188 6.785156 8.507812 6.8125 8.519531 6.839844 C 8.558594 6.851562 8.597656 6.867188 8.640625 6.878906 C 8.652344 6.945312 8.667969 7.011719 8.679688 7.078125 C 8.636719 7.042969 8.589844 7.003906 8.546875 6.96875 C 8.519531 6.945312 8.496094 6.925781 8.46875 6.902344 C 8.398438 6.839844 8.398438 6.839844 8.320312 6.71875 Z M 8.320312 6.71875 "/>
<path style=" stroke:none;fill-rule:nonzero;fill:rgb(91.764706%,25.882354%,27.843139%);fill-opacity:1;" d="M 6.160156 13.398438 C 6.355469 13.589844 6.355469 13.589844 6.398438 13.679688 C 6.203125 13.644531 6.203125 13.644531 6.160156 13.601562 C 6.160156 13.535156 6.160156 13.464844 6.160156 13.398438 Z M 6.160156 13.398438 "/>
<path style=" stroke:none;fill-rule:nonzero;fill:rgb(92.54902%,25.490198%,25.882354%);fill-opacity:1;" d="M 9.878906 11.679688 C 9.878906 11.746094 9.878906 11.8125 9.878906 11.878906 C 9.800781 11.917969 9.800781 11.917969 9.71875 11.960938 C 9.695312 11.933594 9.667969 11.90625 9.640625 11.878906 C 9.835938 11.679688 9.835938 11.679688 9.878906 11.679688 Z M 9.878906 11.679688 "/>
<path style=" stroke:none;fill-rule:nonzero;fill:rgb(94.901961%,23.529412%,23.137255%);fill-opacity:1;" d="M 12.601562 8.921875 C 12.679688 9.039062 12.679688 9.039062 12.679688 9.121094 C 12.625 9.171875 12.574219 9.226562 12.519531 9.28125 C 12.492188 9.210938 12.492188 9.210938 12.480469 9.121094 C 12.539062 9.011719 12.539062 9.011719 12.601562 8.921875 Z M 12.601562 8.921875 "/>
<path style=" stroke:none;fill-rule:nonzero;fill:rgb(90.980393%,29.803923%,30.588236%);fill-opacity:1;" d="M 6.238281 7.761719 C 6.285156 7.796875 6.332031 7.835938 6.378906 7.871094 C 6.40625 7.894531 6.433594 7.914062 6.457031 7.9375 C 6.519531 8 6.519531 8 6.519531 8.121094 C 6.503906 8.101562 6.484375 8.082031 6.46875 8.0625 C 6.398438 7.992188 6.398438 7.992188 6.28125 7.960938 C 6.265625 7.894531 6.253906 7.828125 6.238281 7.761719 Z M 6.238281 7.761719 "/>
<path style=" stroke:none;fill-rule:nonzero;fill:rgb(89.803922%,29.411766%,30.980393%);fill-opacity:1;" d="M 2.839844 4.71875 C 2.851562 4.746094 2.867188 4.773438 2.878906 4.800781 C 2.792969 5.019531 2.792969 5.019531 2.671875 5.09375 C 2.648438 5.101562 2.625 5.113281 2.601562 5.121094 C 2.65625 4.960938 2.730469 4.847656 2.839844 4.71875 Z M 2.839844 4.71875 "/>
<path style=" stroke:none;fill-rule:nonzero;fill:rgb(94.117647%,25.882354%,26.666668%);fill-opacity:1;" d="M 7.160156 18.398438 C 7.332031 18.398438 7.503906 18.398438 7.679688 18.398438 C 7.667969 18.441406 7.652344 18.480469 7.640625 18.519531 C 7.402344 18.480469 7.402344 18.480469 7.160156 18.441406 C 7.160156 18.425781 7.160156 18.414062 7.160156 18.398438 Z M 7.160156 18.398438 "/>
<path style=" stroke:none;fill-rule:nonzero;fill:rgb(93.333334%,26.274511%,27.450982%);fill-opacity:1;" d="M 14.480469 17.480469 C 14.574219 17.480469 14.664062 17.480469 14.761719 17.480469 C 14.671875 17.578125 14.609375 17.617188 14.480469 17.640625 C 14.480469 17.585938 14.480469 17.535156 14.480469 17.480469 Z M 14.480469 17.480469 "/>
<path style=" stroke:none;fill-rule:nonzero;fill:rgb(91.37255%,22.352941%,22.745098%);fill-opacity:1;" d="M 16.546875 15.875 C 16.578125 15.875 16.609375 15.878906 16.640625 15.878906 C 16.574219 15.960938 16.507812 16.039062 16.441406 16.121094 C 16.414062 16.066406 16.386719 16.015625 16.359375 15.960938 C 16.441406 15.878906 16.441406 15.878906 16.546875 15.875 Z M 16.546875 15.875 "/>
<path style=" stroke:none;fill-rule:nonzero;fill:rgb(90.196079%,33.725491%,35.294119%);fill-opacity:1;" d="M 10.078125 8.199219 C 10.121094 8.199219 10.160156 8.199219 10.199219 8.199219 C 10.144531 8.328125 10.121094 8.359375 10 8.441406 C 9.960938 8.386719 9.921875 8.335938 9.878906 8.28125 C 9.980469 8.300781 9.980469 8.300781 10.078125 8.320312 C 10.078125 8.28125 10.078125 8.242188 10.078125 8.199219 Z M 10.078125 8.199219 "/>
<path style=" stroke:none;fill-rule:nonzero;fill:rgb(89.019608%,27.843139%,27.843139%);fill-opacity:1;" d="M 17.121094 4.71875 C 17.222656 4.820312 17.316406 4.921875 17.398438 5.039062 C 17.386719 5.066406 17.375 5.09375 17.359375 5.121094 C 17.226562 5.03125 17.167969 4.988281 17.128906 4.828125 C 17.125 4.792969 17.121094 4.757812 17.121094 4.71875 Z M 17.121094 4.71875 "/>
<path style=" stroke:none;fill-rule:nonzero;fill:rgb(90.980393%,27.843139%,29.411766%);fill-opacity:1;" d="M 14.238281 2.199219 C 14.371094 2.265625 14.503906 2.332031 14.640625 2.398438 C 14.480469 2.441406 14.480469 2.441406 14.394531 2.40625 C 14.371094 2.390625 14.34375 2.375 14.320312 2.359375 C 14.292969 2.347656 14.265625 2.332031 14.238281 2.320312 C 14.238281 2.28125 14.238281 2.242188 14.238281 2.199219 Z M 14.238281 2.199219 "/>
<path style=" stroke:none;fill-rule:nonzero;fill:rgb(100%,83.92157%,82.745099%);fill-opacity:1;" d="M 16.679688 15.839844 C 16.691406 15.878906 16.707031 15.917969 16.71875 15.960938 C 16.601562 16.058594 16.601562 16.058594 16.480469 16.160156 C 16.453125 16.148438 16.425781 16.132812 16.398438 16.121094 C 16.492188 16.027344 16.585938 15.933594 16.679688 15.839844 Z M 16.679688 15.839844 "/>
<path style=" stroke:none;fill-rule:nonzero;fill:rgb(90.980393%,25.490198%,26.666668%);fill-opacity:1;" d="M 13.800781 13.398438 C 13.8125 13.453125 13.828125 13.503906 13.839844 13.558594 C 13.773438 13.613281 13.707031 13.664062 13.640625 13.71875 C 13.613281 13.707031 13.585938 13.695312 13.558594 13.679688 C 13.640625 13.585938 13.71875 13.496094 13.800781 13.398438 Z M 13.800781 13.398438 "/>
<path style=" stroke:none;fill-rule:nonzero;fill:rgb(92.54902%,32.941177%,32.941177%);fill-opacity:1;" d="M 11.359375 12.878906 C 11.4375 12.945312 11.519531 13.011719 11.601562 13.078125 C 11.574219 13.105469 11.546875 13.132812 11.519531 13.160156 C 11.507812 13.121094 11.492188 13.082031 11.480469 13.039062 C 11.453125 13.039062 11.425781 13.039062 11.398438 13.039062 C 11.386719 13.066406 11.375 13.09375 11.359375 13.121094 C 11.359375 13.039062 11.359375 12.960938 11.359375 12.878906 Z M 11.359375 12.878906 "/>
<path style=" stroke:none;fill-rule:nonzero;fill:rgb(92.156863%,30.588236%,32.156864%);fill-opacity:1;" d="M 8.199219 10.078125 C 8.28125 10.097656 8.28125 10.097656 8.359375 10.121094 C 8.242188 10.21875 8.242188 10.21875 8.121094 10.320312 C 8.15625 10.125 8.15625 10.125 8.199219 10.078125 Z M 8.199219 10.078125 "/>
<path style=" stroke:none;fill-rule:nonzero;fill:rgb(90.588236%,24.313726%,25.882354%);fill-opacity:1;" d="M 13.480469 6.199219 C 13.566406 6.21875 13.640625 6.238281 13.71875 6.28125 C 13.746094 6.382812 13.746094 6.382812 13.761719 6.480469 C 13.714844 6.441406 13.667969 6.402344 13.621094 6.363281 C 13.59375 6.339844 13.566406 6.320312 13.542969 6.296875 C 13.519531 6.277344 13.5 6.257812 13.480469 6.238281 C 13.480469 6.226562 13.480469 6.214844 13.480469 6.199219 Z M 13.480469 6.199219 "/>
<path style=" stroke:none;fill-rule:nonzero;fill:rgb(90.980393%,28.235295%,29.411766%);fill-opacity:1;" d="M 2.398438 5.359375 C 2.425781 5.425781 2.425781 5.425781 2.441406 5.519531 C 2.386719 5.628906 2.386719 5.628906 2.320312 5.71875 C 2.292969 5.71875 2.265625 5.71875 2.238281 5.71875 C 2.28125 5.582031 2.320312 5.480469 2.398438 5.359375 Z M 2.398438 5.359375 "/>
<path style=" stroke:none;fill-rule:nonzero;fill:rgb(99.215686%,88.627452%,88.235295%);fill-opacity:1;" d="M 17 15.441406 C 17.027344 15.511719 17.027344 15.511719 17.039062 15.601562 C 16.984375 15.671875 16.984375 15.671875 16.921875 15.71875 C 16.878906 15.707031 16.839844 15.695312 16.800781 15.679688 C 16.867188 15.601562 16.933594 15.523438 17 15.441406 Z M 17 15.441406 "/>
<path style=" stroke:none;fill-rule:nonzero;fill:rgb(92.941177%,24.313726%,26.666668%);fill-opacity:1;" d="M 17.28125 15.121094 C 17.214844 15.1875 17.148438 15.253906 17.078125 15.320312 C 17.066406 15.253906 17.054688 15.1875 17.039062 15.121094 C 17.160156 15.078125 17.160156 15.078125 17.28125 15.121094 Z M 17.28125 15.121094 "/>
<path style=" stroke:none;fill-rule:nonzero;fill:rgb(91.37255%,27.450982%,28.235295%);fill-opacity:1;" d="M 13.800781 7.640625 C 13.8125 7.640625 13.828125 7.640625 13.839844 7.640625 C 13.851562 7.734375 13.851562 7.734375 13.839844 7.839844 C 13.761719 7.914062 13.761719 7.914062 13.679688 7.960938 C 13.652344 7.945312 13.628906 7.933594 13.601562 7.921875 C 13.632812 7.875 13.664062 7.828125 13.699219 7.78125 C 13.714844 7.753906 13.734375 7.726562 13.753906 7.703125 C 13.769531 7.679688 13.785156 7.660156 13.800781 7.640625 Z M 13.800781 7.640625 "/>
<path style=" stroke:none;fill-rule:nonzero;fill:rgb(90.588236%,26.274511%,27.058825%);fill-opacity:1;" d="M 9.121094 7.28125 C 9.132812 7.371094 9.144531 7.464844 9.160156 7.558594 C 9.082031 7.492188 9 7.429688 8.921875 7.359375 C 9.074219 7.28125 9.074219 7.28125 9.121094 7.28125 Z M 9.121094 7.28125 "/>
<path style=" stroke:none;fill-rule:nonzero;fill:rgb(100%,90.588236%,89.411765%);fill-opacity:1;" d="M 6.761719 6.121094 C 6.761719 6.144531 6.761719 6.171875 6.761719 6.199219 C 6.691406 6.265625 6.691406 6.265625 6.601562 6.320312 C 6.511719 6.308594 6.511719 6.308594 6.441406 6.28125 C 6.671875 6.121094 6.671875 6.121094 6.761719 6.121094 Z M 6.761719 6.121094 "/>
<path style=" stroke:none;fill-rule:nonzero;fill:rgb(94.117647%,30.19608%,31.37255%);fill-opacity:1;" d="M 3.761719 3.640625 C 3.785156 3.652344 3.8125 3.667969 3.839844 3.679688 C 3.828125 3.757812 3.8125 3.839844 3.800781 3.921875 C 3.785156 3.894531 3.773438 3.867188 3.761719 3.839844 C 3.71875 3.839844 3.679688 3.839844 3.640625 3.839844 C 3.714844 3.683594 3.714844 3.683594 3.761719 3.640625 Z M 3.761719 3.640625 "/>
</g>
</svg>
