<svg version="1.1" id="Layer_1" xmlns="http://www.w3.org/2000/svg" xmlns:xlink="http://www.w3.org/1999/xlink" x="0px" y="0px" width="35" viewBox="0 0 500 500" enable-background="new 0 0 500 500" xml:space="preserve" height="35">
<path fill="#FBFBFB" opacity="1.000000" stroke="none" d="
M278.000000,501.000000 
	C260.312439,501.000000 242.624878,501.000000 224.763092,500.629028 
	C223.559799,499.848602 222.564270,499.245178 221.496353,499.060638 
	C213.484909,497.676178 205.363190,496.793213 197.453018,494.980682 
	C131.612000,479.893646 79.656487,444.315033 42.109150,388.208557 
	C20.324522,355.656067 7.452962,319.611542 2.846486,280.656281 
	C2.734739,279.711273 1.637560,278.882812 0.999998,278.000000 
	C1.000000,259.979095 1.000000,241.958206 1.357275,223.797958 
	C2.124971,222.662903 2.729299,221.701950 2.914865,220.665985 
	C4.291700,212.979584 5.176891,205.181854 6.967680,197.596420 
	C26.931292,113.034653 77.458076,54.018661 156.812302,19.482765 
	C177.169312,10.623147 198.660706,5.464877 220.751648,2.922359 
	C221.564087,2.828854 222.253342,1.665031 223.000000,1.000003 
	C241.020889,1.000000 259.041779,1.000000 277.228882,1.364462 
	C278.252289,2.118209 279.081787,2.763754 279.970642,2.859805 
	C313.830139,6.518697 345.529663,16.911039 374.922058,34.003231 
	C423.975708,62.528774 459.894592,102.818764 481.900604,155.240799 
	C490.692383,176.184341 496.398041,197.993744 499.095703,220.576950 
	C499.199768,221.448029 500.341675,222.195129 501.000000,223.000000 
	C501.000000,241.354233 501.000000,259.708466 500.647217,278.197388 
	C499.897552,279.155121 499.291321,279.940674 499.136383,280.806946 
	C497.733429,288.650970 496.822479,296.606415 494.998840,304.348175 
	C474.801117,390.092163 423.339600,449.422211 342.537781,483.514435 
	C322.745880,491.865082 301.931183,497.001007 280.452637,499.105530 
	C279.581573,499.190857 278.815155,500.344238 278.000000,501.000000 
M459.087433,146.385056 
	C419.739410,72.079872 358.061981,29.552305 274.910828,19.351711 
	C227.214050,13.500494 181.785980,23.446068 139.580627,46.429199 
	C38.504642,101.470627 -7.092300,221.788681 31.803984,329.924438 
	C72.990829,444.428223 195.609665,507.905670 313.002655,475.495605 
	C410.291351,448.636017 479.631714,361.856415 483.789307,261.417572 
	C485.451080,221.272110 477.407196,183.073090 459.087433,146.385056 
z"></path>
<path fill="#010101" opacity="1.000000" stroke="none" d="
M501.000000,222.531342 
	C500.341675,222.195129 499.199768,221.448029 499.095703,220.576950 
	C496.398041,197.993744 490.692383,176.184341 481.900604,155.240799 
	C459.894592,102.818764 423.975708,62.528774 374.922058,34.003231 
	C345.529663,16.911039 313.830139,6.518697 279.970642,2.859805 
	C279.081787,2.763754 278.252289,2.118209 277.697571,1.364462 
	C352.260193,1.000000 426.520416,1.000000 501.000000,1.000000 
	C501.000000,74.687416 501.000000,148.375046 501.000000,222.531342 
z"></path>
<path fill="#010101" opacity="1.000000" stroke="none" d="
M278.468658,501.000000 
	C278.815155,500.344238 279.581573,499.190857 280.452637,499.105530 
	C301.931183,497.001007 322.745880,491.865082 342.537781,483.514435 
	C423.339600,449.422211 474.801117,390.092163 494.998840,304.348175 
	C496.822479,296.606415 497.733429,288.650970 499.136383,280.806946 
	C499.291321,279.940674 499.897552,279.155121 500.647217,278.666077 
	C501.000000,352.927185 501.000000,426.854401 501.000000,501.000000 
	C426.979248,501.000000 352.958282,501.000000 278.468658,501.000000 
z"></path>
<path fill="#010101" opacity="1.000000" stroke="none" d="
M222.531342,1.000003 
	C222.253342,1.665031 221.564087,2.828854 220.751648,2.922359 
	C198.660706,5.464877 177.169312,10.623147 156.812302,19.482765 
	C77.458076,54.018661 26.931292,113.034653 6.967680,197.596420 
	C5.176891,205.181854 4.291700,212.979584 2.914865,220.665985 
	C2.729299,221.701950 2.124971,222.662903 1.357275,223.329300 
	C1.000000,149.072952 1.000000,75.145920 1.000000,1.000000 
	C74.687416,1.000000 148.375046,1.000000 222.531342,1.000003 
z"></path>
<path fill="#010101" opacity="1.000000" stroke="none" d="
M0.999998,278.468658 
	C1.637560,278.882812 2.734739,279.711273 2.846486,280.656281 
	C7.452962,319.611542 20.324522,355.656067 42.109150,388.208557 
	C79.656487,444.315033 131.612000,479.893646 197.453018,494.980682 
	C205.363190,496.793213 213.484909,497.676178 221.496353,499.060638 
	C222.564270,499.245178 223.559799,499.848602 224.294434,500.629028 
	C149.739639,501.000000 75.479271,501.000000 1.000000,501.000000 
	C1.000000,426.979248 1.000000,352.958282 0.999998,278.468658 
z"></path>
<path fill="#010101" opacity="1.000000" stroke="none" d="
M459.262451,146.716324 
	C477.407196,183.073090 485.451080,221.272110 483.789307,261.417572 
	C479.631714,361.856415 410.291351,448.636017 313.002655,475.495605 
	C195.609665,507.905670 72.990829,444.428223 31.803984,329.924438 
	C-7.092300,221.788681 38.504642,101.470627 139.580627,46.429199 
	C181.785980,23.446068 227.214050,13.500494 274.910828,19.351711 
	C358.061981,29.552305 419.739410,72.079872 459.262451,146.716324 
M251.228821,345.739105 
	C282.367889,327.233337 313.505951,308.725922 344.646423,290.222504 
	C360.930664,280.546570 377.259766,270.945190 393.491364,261.181793 
	C404.302277,254.678955 404.028534,242.114105 393.077698,236.051071 
	C391.624115,235.246277 390.168121,234.445251 388.728790,233.615479 
	C319.048035,193.443817 249.279053,153.423462 179.782990,112.934723 
	C168.892960,106.590134 156.399933,112.462173 156.472046,126.037239 
	C156.913834,209.199768 156.717010,292.365784 156.656219,375.530609 
	C156.651917,381.414246 157.831375,386.442108 163.418533,389.455902 
	C168.983154,392.457520 174.145691,391.461029 179.411758,388.310760 
	C203.084290,374.149139 226.845642,360.136017 251.228821,345.739105 
z"></path>
<path fill="#FEFEFE" opacity="1.000000" stroke="none" d="
M250.901886,345.904236 
	C226.845642,360.136017 203.084290,374.149139 179.411758,388.310760 
	C174.145691,391.461029 168.983154,392.457520 163.418533,389.455902 
	C157.831375,386.442108 156.651917,381.414246 156.656219,375.530609 
	C156.717010,292.365784 156.913834,209.199768 156.472046,126.037239 
	C156.399933,112.462173 168.892960,106.590134 179.782990,112.934723 
	C249.279053,153.423462 319.048035,193.443817 388.728790,233.615479 
	C390.168121,234.445251 391.624115,235.246277 393.077698,236.051071 
	C404.028534,242.114105 404.302277,254.678955 393.491364,261.181793 
	C377.259766,270.945190 360.930664,280.546570 344.646423,290.222504 
	C313.505951,308.725922 282.367889,327.233337 250.901886,345.904236 
z"></path>
</svg>