<?xml version="1.0" encoding="UTF-8"?>
<svg xmlns="http://www.w3.org/2000/svg" xmlns:xlink="http://www.w3.org/1999/xlink" width="20px" height="20px" viewBox="0 0 20 20" version="1.1">
<g id="surface1">
<path style=" stroke:none;fill-rule:nonzero;fill:rgb(13.333334%,13.333334%,13.333334%);fill-opacity:1;" d="M 0 0 C 6.601562 0 13.199219 0 20 0 C 20 6.601562 20 13.199219 20 20 C 13.398438 20 6.800781 20 0 20 C 0 13.398438 0 6.800781 0 0 Z M 0 0 "/>
<path style=" stroke:none;fill-rule:nonzero;fill:rgb(98.823529%,98.823529%,98.823529%);fill-opacity:1;" d="M 0 0 C 6.601562 0 13.199219 0 20 0 C 20 6.601562 20 13.199219 20 20 C 13.398438 20 6.800781 20 0 20 C 0 13.398438 0 6.800781 0 0 Z M 8.160156 1.28125 C 8.132812 1.285156 8.105469 1.292969 8.078125 1.296875 C 7.902344 1.335938 7.730469 1.386719 7.558594 1.441406 C 7.523438 1.449219 7.492188 1.460938 7.457031 1.472656 C 6.171875 1.863281 5.039062 2.488281 4.050781 3.398438 C 3.964844 3.476562 3.878906 3.550781 3.792969 3.621094 C 3.632812 3.761719 3.496094 3.917969 3.359375 4.078125 C 3.328125 4.117188 3.296875 4.152344 3.261719 4.191406 C 2.234375 5.367188 1.480469 6.847656 1.238281 8.398438 C 1.234375 8.433594 1.230469 8.464844 1.222656 8.496094 C 1.113281 9.160156 1.105469 9.808594 1.121094 10.480469 C 1.121094 10.511719 1.121094 10.542969 1.121094 10.578125 C 1.148438 12.550781 2.113281 14.578125 3.441406 16 C 3.5 16.066406 3.558594 16.136719 3.617188 16.203125 C 4.917969 17.640625 6.796875 18.488281 8.679688 18.800781 C 8.710938 18.804688 8.742188 18.808594 8.773438 18.816406 C 10.921875 19.175781 13.300781 18.558594 15.074219 17.324219 C 15.367188 17.109375 15.648438 16.882812 15.921875 16.640625 C 15.945312 16.617188 15.96875 16.597656 15.996094 16.574219 C 16.320312 16.28125 16.613281 15.984375 16.878906 15.640625 C 16.90625 15.609375 16.9375 15.574219 16.964844 15.542969 C 17.59375 14.8125 18.027344 13.9375 18.359375 13.039062 C 18.375 12.996094 18.375 12.996094 18.394531 12.949219 C 18.59375 12.421875 18.703125 11.875 18.800781 11.320312 C 18.808594 11.277344 18.808594 11.277344 18.816406 11.230469 C 19.195312 9.070312 18.5625 6.695312 17.320312 4.921875 C 17.089844 4.601562 16.839844 4.304688 16.570312 4.019531 C 16.488281 3.929688 16.414062 3.839844 16.335938 3.75 C 16.195312 3.589844 16.042969 3.457031 15.878906 3.320312 C 15.824219 3.269531 15.824219 3.269531 15.769531 3.222656 C 15.417969 2.910156 15.039062 2.648438 14.640625 2.398438 C 14.601562 2.375 14.601562 2.375 14.5625 2.351562 C 13.722656 1.832031 12.773438 1.503906 11.816406 1.289062 C 11.78125 1.28125 11.746094 1.273438 11.710938 1.265625 C 11.113281 1.136719 10.507812 1.105469 9.894531 1.105469 C 9.863281 1.105469 9.828125 1.105469 9.796875 1.105469 C 9.238281 1.105469 8.703125 1.152344 8.160156 1.28125 Z M 8.160156 1.28125 "/>
<path style=" stroke:none;fill-rule:nonzero;fill:rgb(99.215686%,99.215686%,99.215686%);fill-opacity:1;" d="M 10.597656 4.3125 C 10.945312 4.523438 11.191406 4.804688 11.300781 5.195312 C 11.332031 5.332031 11.324219 5.472656 11.324219 5.609375 C 11.324219 5.644531 11.324219 5.675781 11.324219 5.710938 C 11.324219 5.820312 11.324219 5.929688 11.324219 6.039062 C 11.324219 6.117188 11.324219 6.191406 11.324219 6.265625 C 11.324219 6.46875 11.324219 6.667969 11.324219 6.867188 C 11.324219 7.070312 11.320312 7.273438 11.320312 7.480469 C 11.320312 7.878906 11.320312 8.28125 11.320312 8.679688 C 11.363281 8.679688 11.402344 8.679688 11.445312 8.679688 C 11.839844 8.675781 12.234375 8.671875 12.628906 8.671875 C 12.832031 8.671875 13.035156 8.667969 13.238281 8.667969 C 13.433594 8.667969 13.628906 8.664062 13.824219 8.664062 C 13.898438 8.664062 13.972656 8.664062 14.046875 8.664062 C 14.589844 8.65625 14.992188 8.683594 15.402344 9.074219 C 15.71875 9.429688 15.703125 9.863281 15.6875 10.3125 C 15.671875 10.488281 15.621094 10.617188 15.519531 10.761719 C 15.5 10.789062 15.484375 10.816406 15.464844 10.84375 C 15.265625 11.101562 14.972656 11.277344 14.652344 11.34375 C 14.5 11.363281 14.351562 11.367188 14.199219 11.363281 C 14.167969 11.363281 14.136719 11.363281 14.105469 11.363281 C 14 11.363281 13.898438 11.363281 13.796875 11.363281 C 13.726562 11.363281 13.652344 11.363281 13.582031 11.363281 C 13.394531 11.363281 13.207031 11.363281 13.019531 11.363281 C 12.828125 11.363281 12.636719 11.363281 12.445312 11.363281 C 12.070312 11.363281 11.695312 11.359375 11.320312 11.359375 C 11.320312 11.402344 11.320312 11.441406 11.320312 11.484375 C 11.324219 11.875 11.328125 12.261719 11.328125 12.652344 C 11.328125 12.851562 11.332031 13.050781 11.332031 13.25 C 11.332031 13.445312 11.335938 13.636719 11.335938 13.832031 C 11.335938 13.90625 11.335938 13.976562 11.335938 14.050781 C 11.34375 14.617188 11.308594 15.046875 10.894531 15.476562 C 10.558594 15.773438 10.183594 15.78125 9.761719 15.765625 C 9.4375 15.746094 9.1875 15.585938 8.960938 15.359375 C 8.613281 14.902344 8.625 14.363281 8.628906 13.816406 C 8.628906 13.746094 8.628906 13.675781 8.628906 13.605469 C 8.628906 13.417969 8.628906 13.230469 8.632812 13.046875 C 8.632812 12.855469 8.632812 12.667969 8.632812 12.476562 C 8.636719 12.105469 8.636719 11.730469 8.640625 11.359375 C 8.601562 11.359375 8.5625 11.359375 8.519531 11.359375 C 8.152344 11.363281 7.78125 11.367188 7.410156 11.367188 C 7.222656 11.367188 7.03125 11.371094 6.839844 11.371094 C 6.65625 11.375 6.472656 11.375 6.289062 11.375 C 6.21875 11.375 6.148438 11.375 6.078125 11.375 C 5.59375 11.382812 5.152344 11.363281 4.761719 11.039062 C 4.46875 10.75 4.308594 10.511719 4.300781 10.097656 C 4.300781 10.0625 4.300781 10.023438 4.300781 9.988281 C 4.300781 9.949219 4.300781 9.914062 4.300781 9.875 C 4.308594 9.507812 4.40625 9.277344 4.652344 9.003906 C 4.949219 8.730469 5.257812 8.671875 5.652344 8.675781 C 5.683594 8.675781 5.714844 8.675781 5.75 8.675781 C 5.859375 8.675781 5.964844 8.675781 6.074219 8.675781 C 6.148438 8.675781 6.226562 8.675781 6.300781 8.675781 C 6.496094 8.675781 6.695312 8.675781 6.890625 8.675781 C 7.09375 8.675781 7.292969 8.679688 7.496094 8.679688 C 7.890625 8.679688 8.285156 8.679688 8.679688 8.679688 C 8.679688 8.636719 8.679688 8.59375 8.679688 8.550781 C 8.675781 8.152344 8.671875 7.753906 8.671875 7.355469 C 8.671875 7.148438 8.667969 6.945312 8.667969 6.738281 C 8.667969 6.542969 8.664062 6.34375 8.664062 6.144531 C 8.664062 6.070312 8.664062 5.996094 8.664062 5.917969 C 8.65625 5.164062 8.65625 5.164062 8.839844 4.839844 C 8.859375 4.804688 8.878906 4.769531 8.898438 4.730469 C 9.277344 4.222656 10.011719 4.0625 10.597656 4.3125 Z M 10.597656 4.3125 "/>
<path style=" stroke:none;fill-rule:nonzero;fill:rgb(0.784314%,0.784314%,0.784314%);fill-opacity:1;" d="M 0 10.679688 C 0.0117188 10.679688 0.0273438 10.679688 0.0390625 10.679688 C 0.0429688 10.710938 0.046875 10.746094 0.0507812 10.777344 C 0.390625 13.472656 1.503906 16.003906 3.679688 17.71875 C 3.710938 17.746094 3.738281 17.769531 3.769531 17.796875 C 4.902344 18.738281 6.292969 19.382812 7.71875 19.71875 C 7.769531 19.730469 7.816406 19.742188 7.863281 19.753906 C 8.355469 19.863281 8.859375 19.90625 9.359375 19.960938 C 9.359375 19.972656 9.359375 19.988281 9.359375 20 C 6.269531 20 3.183594 20 0 20 C 0 16.925781 0 13.847656 0 10.679688 Z M 0 10.679688 "/>
<path style=" stroke:none;fill-rule:nonzero;fill:rgb(0.784314%,0.784314%,0.784314%);fill-opacity:1;" d="M 19.960938 10.761719 C 19.972656 10.761719 19.988281 10.761719 20 10.761719 C 20 13.808594 20 16.859375 20 20 C 16.910156 20 13.824219 20 10.640625 20 C 10.640625 19.988281 10.640625 19.972656 10.640625 19.960938 C 10.671875 19.957031 10.707031 19.953125 10.742188 19.949219 C 13.171875 19.65625 15.25 18.777344 17.039062 17.078125 C 17.074219 17.046875 17.105469 17.015625 17.140625 16.984375 C 17.367188 16.765625 17.566406 16.527344 17.761719 16.28125 C 17.792969 16.242188 17.824219 16.199219 17.855469 16.160156 C 18.503906 15.335938 19.003906 14.421875 19.371094 13.441406 C 19.394531 13.375 19.421875 13.308594 19.449219 13.242188 C 19.757812 12.449219 19.847656 11.59375 19.960938 10.761719 Z M 19.960938 10.761719 "/>
<path style=" stroke:none;fill-rule:nonzero;fill:rgb(0.784314%,0.784314%,0.784314%);fill-opacity:1;" d="M 10.71875 0 C 13.78125 0 16.84375 0 20 0 C 20 3.050781 20 6.097656 20 9.238281 C 19.988281 9.238281 19.972656 9.238281 19.960938 9.238281 C 19.957031 9.214844 19.957031 9.191406 19.953125 9.167969 C 19.855469 8.214844 19.65625 7.296875 19.320312 6.398438 C 19.308594 6.367188 19.296875 6.335938 19.285156 6.304688 C 18.878906 5.234375 18.242188 4.25 17.480469 3.398438 C 17.460938 3.378906 17.441406 3.359375 17.421875 3.335938 C 15.703125 1.421875 13.289062 0.226562 10.71875 0.0390625 C 10.71875 0.0273438 10.71875 0.0117188 10.71875 0 Z M 10.71875 0 "/>
<path style=" stroke:none;fill-rule:nonzero;fill:rgb(0.784314%,0.784314%,0.784314%);fill-opacity:1;" d="M 0 0 C 3.074219 0 6.152344 0 9.320312 0 C 9.320312 0.0117188 9.320312 0.0273438 9.320312 0.0390625 C 9.292969 0.0429688 9.265625 0.046875 9.238281 0.046875 C 7.503906 0.21875 5.789062 0.726562 4.359375 1.761719 C 4.335938 1.777344 4.3125 1.792969 4.285156 1.8125 C 3.515625 2.371094 2.78125 2.996094 2.199219 3.761719 C 2.179688 3.785156 2.160156 3.8125 2.136719 3.839844 C 0.910156 5.429688 0.277344 7.222656 0.0390625 9.199219 C 0.0273438 9.199219 0.0117188 9.199219 0 9.199219 C 0 6.164062 0 3.128906 0 0 Z M 0 0 "/>
<path style=" stroke:none;fill-rule:nonzero;fill:rgb(21.568628%,19.215687%,19.607843%);fill-opacity:1;" d="M 18 6.160156 C 18.085938 6.246094 18.117188 6.3125 18.164062 6.421875 C 18.179688 6.453125 18.191406 6.484375 18.207031 6.515625 C 18.238281 6.601562 18.238281 6.601562 18.238281 6.679688 C 18.214844 6.664062 18.191406 6.652344 18.167969 6.636719 C 18.074219 6.585938 18.074219 6.585938 17.960938 6.640625 C 17.972656 6.59375 17.972656 6.59375 17.984375 6.546875 C 17.988281 6.511719 17.996094 6.476562 18 6.441406 C 17.972656 6.414062 17.945312 6.386719 17.921875 6.359375 C 17.960938 6.238281 17.960938 6.238281 18 6.160156 Z M 18 6.160156 "/>
<path style=" stroke:none;fill-rule:nonzero;fill:rgb(17.254902%,17.254902%,17.254902%);fill-opacity:1;" d="M 9 4.601562 C 8.933594 4.734375 8.867188 4.867188 8.800781 5 C 8.71875 4.878906 8.71875 4.878906 8.679688 4.761719 C 8.71875 4.746094 8.757812 4.734375 8.800781 4.71875 C 8.8125 4.695312 8.828125 4.667969 8.839844 4.640625 C 8.921875 4.601562 8.921875 4.601562 9 4.601562 Z M 9 4.601562 "/>
<path style=" stroke:none;fill-rule:nonzero;fill:rgb(20.784314%,18.431373%,19.215687%);fill-opacity:1;" d="M 3.640625 16.039062 C 3.679688 16.054688 3.71875 16.066406 3.761719 16.078125 C 3.761719 16.121094 3.761719 16.160156 3.761719 16.199219 C 3.835938 16.289062 3.835938 16.289062 3.921875 16.359375 C 3.894531 16.386719 3.867188 16.414062 3.839844 16.441406 C 3.746094 16.347656 3.65625 16.253906 3.558594 16.160156 C 3.585938 16.148438 3.613281 16.132812 3.640625 16.121094 C 3.640625 16.09375 3.640625 16.066406 3.640625 16.039062 Z M 3.640625 16.039062 "/>
<path style=" stroke:none;fill-rule:nonzero;fill:rgb(18.039216%,15.686275%,16.470589%);fill-opacity:1;" d="M 2.921875 15.28125 C 2.960938 15.28125 3 15.28125 3.039062 15.28125 C 3.039062 15.332031 3.039062 15.386719 3.039062 15.441406 C 3.066406 15.441406 3.09375 15.441406 3.121094 15.441406 C 3.203125 15.554688 3.238281 15.617188 3.238281 15.761719 C 3.09375 15.621094 2.984375 15.488281 2.878906 15.320312 C 2.894531 15.308594 2.90625 15.292969 2.921875 15.28125 Z M 2.921875 15.28125 "/>
<path style=" stroke:none;fill-rule:nonzero;fill:rgb(18.82353%,16.078432%,16.862746%);fill-opacity:1;" d="M 15.480469 17 C 15.433594 17.039062 15.390625 17.082031 15.34375 17.121094 C 15.320312 17.140625 15.292969 17.164062 15.269531 17.1875 C 15.199219 17.238281 15.199219 17.238281 15.121094 17.238281 C 15.148438 17.121094 15.148438 17.121094 15.199219 17 C 15.316406 16.945312 15.355469 16.957031 15.480469 17 Z M 15.480469 17 "/>
<path style=" stroke:none;fill-rule:nonzero;fill:rgb(21.176471%,18.82353%,19.607843%);fill-opacity:1;" d="M 17.960938 13.71875 C 17.988281 13.71875 18.011719 13.71875 18.039062 13.71875 C 18.015625 13.914062 17.929688 14.070312 17.839844 14.238281 C 17.828125 14.238281 17.8125 14.238281 17.800781 14.238281 C 17.816406 14.101562 17.835938 13.972656 17.878906 13.839844 C 17.90625 13.839844 17.933594 13.839844 17.960938 13.839844 C 17.960938 13.800781 17.960938 13.761719 17.960938 13.71875 Z M 17.960938 13.71875 "/>
<path style=" stroke:none;fill-rule:nonzero;fill:rgb(90.980393%,90.196079%,90.588236%);fill-opacity:1;" d="M 5.28125 17.558594 C 5.402344 17.609375 5.523438 17.660156 5.640625 17.71875 C 5.640625 17.746094 5.640625 17.773438 5.640625 17.800781 C 5.507812 17.777344 5.398438 17.746094 5.28125 17.679688 C 5.28125 17.640625 5.28125 17.601562 5.28125 17.558594 Z M 5.28125 17.558594 "/>
<path style=" stroke:none;fill-rule:nonzero;fill:rgb(21.568628%,19.607843%,20.392157%);fill-opacity:1;" d="M 16.519531 16 C 16.457031 16.171875 16.339844 16.25 16.199219 16.359375 C 16.199219 16.238281 16.199219 16.238281 16.25 16.175781 C 16.28125 16.144531 16.28125 16.144531 16.316406 16.113281 C 16.335938 16.089844 16.359375 16.070312 16.378906 16.046875 C 16.441406 16 16.441406 16 16.519531 16 Z M 16.519531 16 "/>
<path style=" stroke:none;fill-rule:nonzero;fill:rgb(92.156863%,91.37255%,91.764706%);fill-opacity:1;" d="M 14.328125 17.835938 C 14.351562 17.851562 14.375 17.863281 14.398438 17.878906 C 14.277344 17.960938 14.230469 17.972656 14.09375 17.984375 C 14.058594 17.988281 14.027344 17.992188 13.996094 17.992188 C 13.957031 17.996094 13.957031 17.996094 13.921875 18 C 14.195312 17.78125 14.195312 17.78125 14.328125 17.835938 Z M 14.328125 17.835938 "/>
<path style=" stroke:none;fill-rule:nonzero;fill:rgb(89.411765%,87.450981%,87.843138%);fill-opacity:1;" d="M 18.320312 13.039062 C 18.332031 13.039062 18.347656 13.039062 18.359375 13.039062 C 18.359375 13.238281 18.359375 13.4375 18.359375 13.640625 C 18.347656 13.640625 18.332031 13.640625 18.320312 13.640625 C 18.3125 13.597656 18.308594 13.550781 18.300781 13.507812 C 18.285156 13.363281 18.285156 13.363281 18.238281 13.238281 C 18.277344 13.132812 18.277344 13.132812 18.320312 13.039062 Z M 18.320312 13.039062 "/>
<path style=" stroke:none;fill-rule:nonzero;fill:rgb(23.921569%,23.921569%,23.921569%);fill-opacity:1;" d="M 6.359375 1.878906 C 6.386719 1.894531 6.414062 1.90625 6.441406 1.921875 C 6.144531 2.089844 6.144531 2.089844 6 2.160156 C 5.972656 2.132812 5.945312 2.105469 5.921875 2.078125 C 5.992188 2.046875 6.0625 2.011719 6.136719 1.976562 C 6.175781 1.957031 6.214844 1.9375 6.257812 1.917969 C 6.289062 1.90625 6.324219 1.894531 6.359375 1.878906 Z M 6.359375 1.878906 "/>
<path style=" stroke:none;fill-rule:nonzero;fill:rgb(19.607843%,16.862746%,18.039216%);fill-opacity:1;" d="M 17.679688 5.558594 C 17.839844 5.75 17.839844 5.75 17.839844 5.839844 C 17.789062 5.851562 17.734375 5.867188 17.679688 5.878906 C 17.664062 5.785156 17.652344 5.695312 17.640625 5.601562 C 17.652344 5.585938 17.667969 5.574219 17.679688 5.558594 Z M 17.679688 5.558594 "/>
<path style=" stroke:none;fill-rule:nonzero;fill:rgb(20%,20%,20%);fill-opacity:1;" d="M 9.320312 15.640625 C 9.5 15.679688 9.5 15.679688 9.679688 15.71875 C 9.679688 15.734375 9.679688 15.746094 9.679688 15.761719 C 9.410156 15.84375 9.410156 15.84375 9.320312 15.800781 C 9.320312 15.746094 9.320312 15.695312 9.320312 15.640625 Z M 9.320312 15.640625 "/>
<path style=" stroke:none;fill-rule:nonzero;fill:rgb(18.431373%,15.686275%,16.862746%);fill-opacity:1;" d="M 5.199219 17.359375 C 5.285156 17.375 5.285156 17.375 5.359375 17.398438 C 5.347656 17.453125 5.332031 17.503906 5.320312 17.558594 C 5.253906 17.519531 5.1875 17.480469 5.121094 17.441406 C 5.144531 17.414062 5.171875 17.386719 5.199219 17.359375 Z M 5.199219 17.359375 "/>
<path style=" stroke:none;fill-rule:nonzero;fill:rgb(83.529413%,81.960785%,81.960785%);fill-opacity:1;" d="M 14.039062 2 C 14.054688 2.027344 14.066406 2.054688 14.078125 2.078125 C 14.203125 2.105469 14.203125 2.105469 14.320312 2.121094 C 14.308594 2.160156 14.292969 2.199219 14.28125 2.238281 C 14.140625 2.160156 14.140625 2.160156 14 2.078125 C 14.011719 2.054688 14.027344 2.027344 14.039062 2 Z M 14.039062 2 "/>
</g>
</svg>
