<svg version="1.1" id="Layer_1" xmlns="http://www.w3.org/2000/svg" xmlns:xlink="http://www.w3.org/1999/xlink" x="0px" y="0px" width="35" viewBox="0 0 500 500" enable-background="new 0 0 500 500" xml:space="preserve" height="35">
<path fill="#000000" opacity="1.000000" stroke="none" d="
M330.000000,501.000000 
	C220.000031,501.000000 110.500053,501.000000 1.000059,501.000000 
	C1.000039,334.333405 1.000039,167.666794 1.000020,1.000148 
	C167.666565,1.000099 334.333130,1.000099 500.999756,1.000049 
	C500.999847,167.666519 500.999847,334.333038 500.999939,500.999786 
	C444.166656,501.000000 387.333344,501.000000 330.000000,501.000000 
M137.250488,212.769226 
	C116.774048,225.372696 96.297600,237.976166 75.149895,250.992798 
	C157.226303,301.613464 238.638062,351.824188 321.048218,402.650665 
	C321.048218,367.046295 321.048218,332.617371 321.048218,298.188477 
	C321.737457,297.719849 322.426666,297.251221 323.115906,296.782593 
	C357.333313,331.723419 391.550720,366.664215 426.396729,402.246948 
	C426.396729,301.014435 426.396729,200.915939 426.396729,100.001007 
	C391.035248,135.091705 356.271423,169.589325 320.559570,205.027710 
	C320.559570,169.144119 320.559570,134.767487 320.559570,99.654709 
	C259.241608,137.467056 198.538315,174.900360 137.250488,212.769226 
z"></path>
<path fill="#D8D8D8" opacity="1.000000" stroke="none" d="
M137.542755,212.551437 
	C198.538315,174.900360 259.241608,137.467056 320.559570,99.654709 
	C320.559570,134.767487 320.559570,169.144119 320.559570,205.027710 
	C356.271423,169.589325 391.035248,135.091705 426.396729,100.001007 
	C426.396729,200.915939 426.396729,301.014435 426.396729,402.246948 
	C391.550720,366.664215 357.333313,331.723419 323.115906,296.782593 
	C322.426666,297.251221 321.737457,297.719849 321.048218,298.188477 
	C321.048218,332.617371 321.048218,367.046295 321.048218,402.650665 
	C238.638062,351.824188 157.226303,301.613464 75.149895,250.992798 
	C96.297600,237.976166 116.774048,225.372696 137.542755,212.551437 
z"></path>
</svg>