<svg version="1.1" id="Layer_1" xmlns="http://www.w3.org/2000/svg" xmlns:xlink="http://www.w3.org/1999/xlink" x="0px" y="0px" width="35" viewBox="0 0 500 500" enable-background="new 0 0 500 500" xml:space="preserve" height="35">
<path fill="#000000" opacity="1.000000" stroke="none" d="
M330.000000,501.000000 
	C220.000031,501.000000 110.500053,501.000000 1.000059,501.000000 
	C1.000039,334.333405 1.000039,167.666794 1.000020,1.000148 
	C167.666565,1.000099 334.333130,1.000099 500.999756,1.000049 
	C500.999847,167.666519 500.999847,334.333038 500.999939,500.999786 
	C444.166656,501.000000 387.333344,501.000000 330.000000,501.000000 
M363.530975,211.979965 
	C303.017120,174.648926 242.503296,137.317886 180.986954,99.368401 
	C180.986954,134.953537 180.986954,169.378235 180.986954,204.605103 
	C145.497879,169.381668 110.751312,134.895172 75.564850,99.972092 
	C75.564850,201.148453 75.564850,301.173401 75.564850,402.035614 
	C110.921852,366.943848 145.685455,332.441040 181.363922,297.030243 
	C181.363922,332.819763 181.363922,367.190399 181.363922,402.400604 
	C263.432007,351.779510 344.824127,301.575378 426.811523,251.004059 
	C405.421722,237.801514 384.793060,225.068756 363.530975,211.979965 
z"></path>
<path fill="#D8D8D8" opacity="1.000000" stroke="none" d="
M363.847687,212.157990 
	C384.793060,225.068756 405.421722,237.801514 426.811523,251.004059 
	C344.824127,301.575378 263.432007,351.779510 181.363922,402.400604 
	C181.363922,367.190399 181.363922,332.819763 181.363922,297.030243 
	C145.685455,332.441040 110.921852,366.943848 75.564850,402.035614 
	C75.564850,301.173401 75.564850,201.148453 75.564850,99.972092 
	C110.751312,134.895172 145.497879,169.381668 180.986954,204.605103 
	C180.986954,169.378235 180.986954,134.953537 180.986954,99.368401 
	C242.503296,137.317886 303.017120,174.648926 363.847687,212.157990 
z"></path>
</svg>