<svg version="1.1" id="Layer_1" xmlns="http://www.w3.org/2000/svg" xmlns:xlink="http://www.w3.org/1999/xlink" x="0px" y="0px" width="35" viewBox="0 0 500 500" enable-background="new 0 0 500 500" xml:space="preserve" height="35">
<path fill="#FBFBFB" opacity="1.000000" stroke="none" d="
M224.000000,0.999995 
	C241.687561,1.000000 259.375122,1.000000 277.239502,1.366683 
	C278.448090,2.145272 279.446075,2.751942 280.517120,2.938042 
	C288.534698,4.331175 296.678802,5.170196 304.576965,7.049760 
	C388.471161,27.014494 447.495789,76.848991 482.006958,155.712479 
	C491.050293,176.377899 496.359985,198.157928 499.097992,220.559937 
	C499.205292,221.437668 500.342621,222.189514 501.000000,223.000000 
	C501.000000,241.354233 501.000000,259.708466 500.644714,278.195984 
	C499.875610,279.321381 499.206787,280.283234 499.084900,281.310028 
	C495.383362,312.493347 486.092468,341.988251 471.144897,369.514618 
	C445.042603,417.582825 406.982086,453.277313 357.667114,476.933075 
	C333.357025,488.594299 307.810791,496.035248 281.007019,499.149475 
	C279.947296,499.272614 278.999786,500.361206 278.000000,501.000000 
	C259.979095,501.000000 241.958206,501.000000 223.816345,500.648987 
	C219.413681,499.471405 215.139420,498.603943 210.849182,497.824341 
	C139.982529,484.946259 83.663315,449.279694 43.071621,389.669769 
	C20.834116,357.013397 7.717225,320.699066 2.913369,281.424591 
	C2.806570,280.551453 1.661012,279.805359 1.000003,279.000000 
	C1.000000,260.645782 1.000000,242.291550 1.356312,223.797409 
	C2.114671,222.824890 2.732243,222.029892 2.885218,221.153793 
	C4.314754,212.966690 5.225368,204.663422 7.106339,196.584717 
	C23.632507,125.605209 63.689476,71.711853 126.134209,34.553204 
	C155.480438,17.090303 187.394226,6.673904 221.414658,2.903927 
	C222.335464,2.801889 223.140808,1.658025 224.000000,0.999995 
M369.842834,451.388885 
	C391.713837,438.257629 411.264038,422.301819 427.699799,402.766937 
	C470.560547,351.824402 489.016907,292.974640 482.639313,226.823166 
	C478.325836,182.081390 462.147125,141.496231 433.621918,106.640678 
	C380.127167,41.274376 310.560883,12.004131 226.628693,19.439054 
	C177.071686,23.828936 132.874023,43.305538 96.199089,77.183487 
	C31.905003,136.574234 6.763733,210.277679 22.772577,296.233978 
	C35.087345,362.355621 71.551247,413.550903 128.734192,449.101593 
	C177.042038,479.134674 229.837372,489.463470 286.142303,481.215057 
	C315.741669,476.878906 343.374725,466.797729 369.842834,451.388885 
z"></path>
<path fill="#010101" opacity="1.000000" stroke="none" d="
M223.531342,0.999995 
	C223.140808,1.658025 222.335464,2.801889 221.414658,2.903927 
	C187.394226,6.673904 155.480438,17.090303 126.134209,34.553204 
	C63.689476,71.711853 23.632507,125.605209 7.106339,196.584717 
	C5.225368,204.663422 4.314754,212.966690 2.885218,221.153793 
	C2.732243,222.029892 2.114671,222.824890 1.356312,223.328751 
	C1.000000,149.072800 1.000000,75.145592 1.000000,1.000000 
	C75.020752,1.000000 149.041718,1.000000 223.531342,0.999995 
z"></path>
<path fill="#010101" opacity="1.000000" stroke="none" d="
M501.000000,222.531342 
	C500.342621,222.189514 499.205292,221.437668 499.097992,220.559937 
	C496.359985,198.157928 491.050293,176.377899 482.006958,155.712479 
	C447.495789,76.848991 388.471161,27.014494 304.576965,7.049760 
	C296.678802,5.170196 288.534698,4.331175 280.517120,2.938042 
	C279.446075,2.751942 278.448090,2.145272 277.708130,1.366683 
	C352.260193,1.000000 426.520416,1.000000 501.000000,1.000000 
	C501.000000,74.687416 501.000000,148.375046 501.000000,222.531342 
z"></path>
<path fill="#010101" opacity="1.000000" stroke="none" d="
M278.468658,501.000000 
	C278.999786,500.361206 279.947296,499.272614 281.007019,499.149475 
	C307.810791,496.035248 333.357025,488.594299 357.667114,476.933075 
	C406.982086,453.277313 445.042603,417.582825 471.144897,369.514618 
	C486.092468,341.988251 495.383362,312.493347 499.084900,281.310028 
	C499.206787,280.283234 499.875610,279.321381 500.644714,278.664612 
	C501.000000,352.927185 501.000000,426.854401 501.000000,501.000000 
	C426.979248,501.000000 352.958282,501.000000 278.468658,501.000000 
z"></path>
<path fill="#010101" opacity="1.000000" stroke="none" d="
M1.000003,279.468658 
	C1.661012,279.805359 2.806570,280.551453 2.913369,281.424591 
	C7.717225,320.699066 20.834116,357.013397 43.071621,389.669769 
	C83.663315,449.279694 139.982529,484.946259 210.849182,497.824341 
	C215.139420,498.603943 219.413681,499.471405 223.347687,500.648987 
	C149.072968,501.000000 75.145935,501.000000 1.000000,501.000000 
	C1.000000,427.312592 1.000000,353.624939 1.000003,279.468658 
z"></path>
<path fill="#020202" opacity="1.000000" stroke="none" d="
M369.538910,451.595825 
	C343.374725,466.797729 315.741669,476.878906 286.142303,481.215057 
	C229.837372,489.463470 177.042038,479.134674 128.734192,449.101593 
	C71.551247,413.550903 35.087345,362.355621 22.772577,296.233978 
	C6.763733,210.277679 31.905003,136.574234 96.199089,77.183487 
	C132.874023,43.305538 177.071686,23.828936 226.628693,19.439054 
	C310.560883,12.004131 380.127167,41.274376 433.621918,106.640678 
	C462.147125,141.496231 478.325836,182.081390 482.639313,226.823166 
	C489.016907,292.974640 470.560547,351.824402 427.699799,402.766937 
	C411.264038,422.301819 391.713837,438.257629 369.538910,451.595825 
M341.831055,137.856262 
	C339.044617,130.844879 334.709900,124.994194 328.209869,121.103249 
	C317.048828,114.422226 305.408936,113.852753 293.983551,120.128181 
	C281.958466,126.732979 276.435791,137.421982 276.434814,151.043762 
	C276.430115,217.519638 276.412354,283.995544 276.478180,350.471344 
	C276.481598,353.938171 276.826202,357.500610 277.666779,360.854370 
	C281.722992,377.037567 297.346741,387.525238 314.004822,385.478912 
	C331.773407,383.296112 343.919250,369.616119 343.937744,351.321442 
	C344.005371,284.512390 344.000000,217.703201 343.884613,150.894302 
	C343.877533,146.800949 342.682129,142.709641 341.831055,137.856262 
M225.855133,283.500031 
	C225.852814,239.029449 225.928146,194.558685 225.811966,150.088394 
	C225.761795,130.882431 211.248352,116.180595 192.596603,115.981506 
	C173.580154,115.778542 158.363297,130.253494 158.312759,149.514328 
	C158.135330,217.135773 158.181030,284.758118 158.314789,352.379791 
	C158.337662,363.938202 163.412842,373.408813 173.011353,379.902222 
	C184.003342,387.338318 195.948517,387.898407 207.619308,381.941467 
	C219.587509,375.832703 225.670059,365.386505 225.794983,351.954926 
	C226.004059,329.471710 225.854004,306.985199 225.855133,283.500031 
z"></path>
<path fill="#FCFCFC" opacity="1.000000" stroke="none" d="
M341.935333,138.236816 
	C342.682129,142.709641 343.877533,146.800949 343.884613,150.894302 
	C344.000000,217.703201 344.005371,284.512390 343.937744,351.321442 
	C343.919250,369.616119 331.773407,383.296112 314.004822,385.478912 
	C297.346741,387.525238 281.722992,377.037567 277.666779,360.854370 
	C276.826202,357.500610 276.481598,353.938171 276.478180,350.471344 
	C276.412354,283.995544 276.430115,217.519638 276.434814,151.043762 
	C276.435791,137.421982 281.958466,126.732979 293.983551,120.128181 
	C305.408936,113.852753 317.048828,114.422226 328.209869,121.103249 
	C334.709900,124.994194 339.044617,130.844879 341.935333,138.236816 
z"></path>
<path fill="#FCFCFC" opacity="1.000000" stroke="none" d="
M225.855133,284.000061 
	C225.854004,306.985199 226.004059,329.471710 225.794983,351.954926 
	C225.670059,365.386505 219.587509,375.832703 207.619308,381.941467 
	C195.948517,387.898407 184.003342,387.338318 173.011353,379.902222 
	C163.412842,373.408813 158.337662,363.938202 158.314789,352.379791 
	C158.181030,284.758118 158.135330,217.135773 158.312759,149.514328 
	C158.363297,130.253494 173.580154,115.778542 192.596603,115.981506 
	C211.248352,116.180595 225.761795,130.882431 225.811966,150.088394 
	C225.928146,194.558685 225.852814,239.029449 225.855133,284.000061 
z"></path>
</svg>